<svg width="19" height="19" viewBox="0 0 19 19" fill="none" xmlns="http://www.w3.org/2000/svg">
<g id="ic:round-plus">
<path id="Vector" d="M14.2526 10.2904H10.2943V14.2487C10.2943 14.4587 10.2109 14.66 10.0624 14.8085C9.91393 14.957 9.71257 15.0404 9.5026 15.0404C9.29264 15.0404 9.09128 14.957 8.94281 14.8085C8.79434 14.66 8.71094 14.4587 8.71094 14.2487V10.2904H4.7526C4.54264 10.2904 4.34128 10.207 4.19281 10.0585C4.04435 9.91002 3.96094 9.70866 3.96094 9.4987C3.96094 9.28873 4.04435 9.08737 4.19281 8.93891C4.34128 8.79044 4.54264 8.70703 4.7526 8.70703H8.71094V4.7487C8.71094 4.53873 8.79434 4.33737 8.94281 4.1889C9.09128 4.04044 9.29264 3.95703 9.5026 3.95703C9.71257 3.95703 9.91393 4.04044 10.0624 4.1889C10.2109 4.33737 10.2943 4.53873 10.2943 4.7487V8.70703H14.2526C14.4626 8.70703 14.6639 8.79044 14.8124 8.93891C14.9609 9.08737 15.0443 9.28873 15.0443 9.4987C15.0443 9.70866 14.9609 9.91002 14.8124 10.0585C14.6639 10.207 14.4626 10.2904 14.2526 10.2904Z" fill="#808080"/>
</g>
</svg>
