<svg width="49" height="48" viewBox="0 0 49 48" fill="none" xmlns="http://www.w3.org/2000/svg">
<g clip-path="url(#clip0_353_8130)">
<path d="M48.5001 21.7033V13.1484H39.9452V16.0196H22.2033V13.1484H13.6484V21.7033H16.5196V39.4451H13.6484V48.0001H22.2033V45.1289H39.9451V48.0001H48.5001V39.4452H45.6289V21.7033H48.5001ZM42.8164 39.4452H39.9452V42.3164H22.2033V39.4452H19.3321V21.7033H22.2033V18.8321H39.9451V21.7033H42.8163V39.4452H42.8164Z" fill="white"/>
<path d="M32.4805 21.6445H29.668V26.2968H26.7968V29.168H22.1445V31.9805H26.7968V34.8517H35.3517V26.2968H32.4805V21.6445Z" fill="white"/>
<path d="M13.707 29.168H9.05487V26.2968H6.18369V8.55487H9.05487V5.68369H26.7968V8.55487H29.668V13.207H32.4805V8.55487H35.3517V0H26.7968V2.87119H9.05487V0H0.5V8.55487H3.37119V26.2968H0.5V34.8517H9.05487V31.9805H13.707V29.168Z" fill="white"/>
</g>
<defs>
<clipPath id="clip0_353_8130">
<rect width="48" height="48" fill="white" transform="translate(0.5)"/>
</clipPath>
</defs>
</svg>
