<svg xmlns="http://www.w3.org/2000/svg" width="49" height="48" viewBox="0 0 49 48" fill="none">
  <g clip-path="url(#clip0_353_8165)">
    <path d="M27.3125 35.8125H21.6875C19.8782 35.8125 18.4062 37.2845 18.4062 39.0938V44.7188C18.4062 46.528 19.8782 48 21.6875 48H27.3125C29.1218 48 30.5938 46.528 30.5938 44.7188V39.0938C30.5938 37.2845 29.1218 35.8125 27.3125 35.8125Z" fill="white"/>
    <path d="M9.40625 35.8125H3.78125C1.97197 35.8125 0.5 37.2845 0.5 39.0938V44.7188C0.5 46.528 1.97197 48 3.78125 48H9.40625C11.2155 48 12.6875 46.528 12.6875 44.7188V39.0938C12.6875 37.2845 11.2155 35.8125 9.40625 35.8125Z" fill="white"/>
    <path d="M45.2188 35.8125H39.5938C37.7845 35.8125 36.3125 37.2845 36.3125 39.0938V44.7188C36.3125 46.528 37.7845 48 39.5938 48H45.2188C47.028 48 48.5 46.528 48.5 44.7188V39.0938C48.5 37.2845 47.028 35.8125 45.2188 35.8125Z" fill="white"/>
    <path d="M24.5 19.6875C29.9278 19.6875 34.3438 15.2716 34.3438 9.84375C34.3438 4.41591 29.9278 0 24.5 0C19.0722 0 14.6562 4.41591 14.6562 9.84375C14.6562 15.2716 19.0722 19.6875 24.5 19.6875ZM21.6875 8.4375H23.0938V7.03125C23.0938 6.25462 23.7234 5.625 24.5 5.625C25.2766 5.625 25.9062 6.25462 25.9062 7.03125V9.84375C25.9062 10.6204 25.2766 11.25 24.5 11.25H21.6875C20.9109 11.25 20.2812 10.6204 20.2812 9.84375C20.2812 9.06713 20.9109 8.4375 21.6875 8.4375Z" fill="white"/>
    <path d="M6.59375 32.8125C7.37038 32.8125 8 32.1829 8 31.4062V30.4688C8 29.6933 8.63084 29.0625 9.40625 29.0625H23.0938V32.3438C23.0938 33.1204 23.7234 33.75 24.5 33.75C25.2766 33.75 25.9062 33.1204 25.9062 32.3438V29.0625H39.5938C40.3692 29.0625 41 29.6933 41 30.4688V31.4062C41 32.1829 41.6296 32.8125 42.4062 32.8125C43.1829 32.8125 43.8125 32.1829 43.8125 31.4062V30.4688C43.8125 28.1425 41.92 26.25 39.5938 26.25H25.9062V22.9688C25.9062 22.1921 25.2766 21.5625 24.5 21.5625C23.7234 21.5625 23.0938 22.1921 23.0938 22.9688V26.25H9.40625C7.08003 26.25 5.1875 28.1425 5.1875 30.4688V31.4062C5.1875 32.1829 5.81712 32.8125 6.59375 32.8125Z" fill="white"/>
  </g>
  <defs>
    <clipPath id="clip0_353_8165">
      <rect width="48" height="48" fill="white" transform="translate(0.5)"/>
    </clipPath>
  </defs>
</svg>