<svg xmlns="http://www.w3.org/2000/svg" width="49" height="48" viewBox="0 0 49 48" fill="none">
  <g clip-path="url(#clip0_353_8136)">
    <path d="M46.7772 39.9754L38.8779 34.7092C41.9897 31.1186 43.6654 26.5705 43.6654 21.5436C43.6654 9.57494 34.0904 0 22.1217 0C10.1531 0 0.578125 9.57494 0.578125 21.5436C0.578125 33.5123 10.1531 43.0872 22.1217 43.0872C27.1486 43.0872 31.6967 41.4116 35.2873 38.5391L40.5535 46.4385C42.2291 48.3535 45.1016 48.5928 47.0166 46.6778C48.9316 44.7628 48.9316 41.651 46.7772 39.9754ZM22.1217 38.2998C12.7862 38.2998 5.36559 30.8792 5.36559 21.5436C5.36559 12.208 12.7862 4.78747 22.1217 4.78747C31.4573 4.78747 38.8779 12.208 38.8779 21.5436C38.8779 30.8792 31.4573 38.2998 22.1217 38.2998Z" fill="white"/>
    <path d="M34.0897 23.9371V19.1496H31.4566C31.2172 18.1922 30.9778 17.474 30.4991 16.7559L32.4141 14.8409L29.0629 11.4897L26.9085 13.4047C26.1904 12.9259 25.2329 12.6866 24.5148 12.4472V9.57471H19.7273V12.2078C18.7698 12.4472 18.0517 12.9259 17.3335 13.4047L15.4186 11.4897L12.0673 14.8409L13.9823 16.7559C13.5036 17.474 13.0248 18.1922 12.7855 19.1496H10.1523V23.9371H12.7855C13.0248 24.8946 13.2642 25.6127 13.7429 26.3309L11.828 28.2458L15.1792 31.5971L17.3335 29.6821C18.0517 30.1608 19.0092 30.4002 19.7273 30.6396V33.5121H24.5148V30.8789C25.4722 30.6396 26.1904 30.4002 26.9085 29.9215L28.8235 31.8364L32.1747 28.4852L30.2597 26.3309C30.7385 25.6127 30.9778 24.8946 31.2172 23.9371H34.0897ZM22.121 26.3309C19.4879 26.3309 17.3335 24.1765 17.3335 21.5434C17.3335 18.9103 19.4879 16.7559 22.121 16.7559C24.7541 16.7559 26.9085 18.9103 26.9085 21.5434C26.9085 24.1765 24.7541 26.3309 22.121 26.3309Z" fill="white"/>
  </g>
  <defs>
    <clipPath id="clip0_353_8136">
      <rect width="48" height="48" fill="white" transform="translate(0.5)"/>
    </clipPath>
  </defs>
</svg>