<svg xmlns="http://www.w3.org/2000/svg" width="49" height="48" viewBox="0 0 49 48" fill="none">
  <path d="M8.6375 3H5C4.17157 3 3.5 3.67157 3.5 4.5V8.1375C3.5 8.96593 4.17157 9.6375 5 9.6375H8.6375C9.46593 9.6375 10.1375 8.96593 10.1375 8.1375V4.5C10.1375 3.67157 9.46593 3 8.6375 3Z" fill="white"/>
  <path d="M44.0008 3H40.3633C39.5349 3 38.8633 3.67157 38.8633 4.5V8.1375C38.8633 8.96593 39.5349 9.6375 40.3633 9.6375H44.0008C44.8292 9.6375 45.5008 8.96593 45.5008 8.1375V4.5C45.5008 3.67157 44.8292 3 44.0008 3Z" fill="white"/>
  <path d="M8.6375 38.3623H5C4.17157 38.3623 3.5 39.0339 3.5 39.8623V43.4998C3.5 44.3282 4.17157 44.9998 5 44.9998H8.6375C9.46593 44.9998 10.1375 44.3282 10.1375 43.4998V39.8623C10.1375 39.0339 9.46593 38.3623 8.6375 38.3623Z" fill="white"/>
  <path d="M44.0008 38.3623H40.3633C39.5349 38.3623 38.8633 39.0339 38.8633 39.8623V43.4998C38.8633 44.3282 39.5349 44.9998 40.3633 44.9998H44.0008C44.8292 44.9998 45.5008 44.3282 45.5008 43.4998V39.8623C45.5008 39.0339 44.8292 38.3623 44.0008 38.3623Z" fill="white"/>
  <path d="M8.6375 20.6851H5C4.803 20.685 4.60792 20.7238 4.42591 20.7991C4.2439 20.8745 4.07852 20.985 3.93922 21.1243C3.79992 21.2636 3.68944 21.429 3.61407 21.611C3.53871 21.793 3.49995 21.9881 3.5 22.1851V25.8151C3.49995 26.0121 3.53871 26.2071 3.61407 26.3891C3.68944 26.5712 3.79992 26.7365 3.93922 26.8758C4.07852 27.0151 4.2439 27.1256 4.42591 27.201C4.60792 27.2763 4.803 27.3151 5 27.3151H8.6375C8.8345 27.3151 9.02958 27.2764 9.21159 27.201C9.39361 27.1256 9.55899 27.0151 9.69829 26.8758C9.83758 26.7365 9.94807 26.5712 10.0234 26.3892C10.0988 26.2071 10.1376 26.0121 10.1375 25.8151V22.1851C10.1376 21.9881 10.0988 21.793 10.0234 21.611C9.94807 21.429 9.83758 21.2636 9.69829 21.1243C9.55899 20.985 9.39361 20.8745 9.21159 20.7991C9.02958 20.7238 8.8345 20.685 8.6375 20.6851Z" fill="white"/>
  <path d="M44.0008 20.6851H40.3633C40.1663 20.685 39.9712 20.7238 39.7892 20.7991C39.6072 20.8745 39.4418 20.985 39.3025 21.1243C39.1632 21.2636 39.0527 21.429 38.9773 21.611C38.902 21.793 38.8632 21.9881 38.8633 22.1851V25.8151C38.8632 26.0121 38.902 26.2071 38.9773 26.3892C39.0527 26.5712 39.1632 26.7365 39.3025 26.8758C39.4418 27.0151 39.6072 27.1256 39.7892 27.201C39.9712 27.2764 40.1663 27.3151 40.3633 27.3151H44.0008C44.1978 27.3151 44.3929 27.2763 44.5749 27.201C44.7569 27.1256 44.9223 27.0151 45.0616 26.8758C45.2009 26.7365 45.3113 26.5712 45.3867 26.3891C45.4621 26.2071 45.5008 26.0121 45.5008 25.8151V22.1851C45.5008 21.9881 45.4621 21.793 45.3867 21.611C45.3113 21.429 45.2009 21.2636 45.0616 21.1243C44.9223 20.985 44.7569 20.8745 44.5749 20.7991C44.3929 20.7238 44.1978 20.685 44.0008 20.6851Z" fill="white"/>
  <path d="M22.6836 9.6375H26.3136C26.5106 9.63756 26.7057 9.5988 26.8877 9.52344C27.0697 9.44808 27.2351 9.33759 27.3744 9.19829C27.5137 9.05899 27.6242 8.89361 27.6995 8.7116C27.7749 8.52958 27.8137 8.3345 27.8136 8.1375V4.5C27.8137 4.303 27.7749 4.10792 27.6995 3.9259C27.6242 3.74389 27.5137 3.57851 27.3744 3.43921C27.2351 3.29991 27.0697 3.18942 26.8877 3.11406C26.7057 3.0387 26.5106 2.99994 26.3136 3H22.6836C22.4866 2.99994 22.2915 3.0387 22.1095 3.11406C21.9275 3.18942 21.7621 3.29991 21.6228 3.43921C21.4835 3.57851 21.373 3.74389 21.2977 3.9259C21.2223 4.10792 21.1835 4.303 21.1836 4.5V8.1375C21.1835 8.3345 21.2223 8.52958 21.2977 8.7116C21.373 8.89361 21.4835 9.05899 21.6228 9.19829C21.7621 9.33759 21.9275 9.44808 22.1095 9.52344C22.2915 9.5988 22.4866 9.63756 22.6836 9.6375Z" fill="white"/>
  <path d="M26.3136 38.3623H22.6836C22.4866 38.3622 22.2915 38.401 22.1095 38.4764C21.9275 38.5517 21.7621 38.6622 21.6228 38.8015C21.4835 38.9408 21.373 39.1062 21.2977 39.2882C21.2223 39.4702 21.1835 39.6653 21.1836 39.8623V43.4998C21.1835 43.6968 21.2223 43.8919 21.2977 44.0739C21.373 44.2559 21.4835 44.4213 21.6228 44.5606C21.7621 44.6999 21.9275 44.8104 22.1095 44.8857C22.2915 44.9611 22.4866 44.9999 22.6836 44.9998H26.3136C26.5106 44.9999 26.7057 44.9611 26.8877 44.8857C27.0697 44.8104 27.2351 44.6999 27.3744 44.5606C27.5137 44.4213 27.6242 44.2559 27.6995 44.0739C27.7749 43.8919 27.8136 43.6968 27.8136 43.4998V39.8623C27.8136 39.6653 27.7749 39.4702 27.6995 39.2882C27.6242 39.1062 27.5137 38.9408 27.3744 38.8015C27.2351 38.6622 27.0697 38.5517 26.8877 38.4764C26.7057 38.401 26.5106 38.3622 26.3136 38.3623Z" fill="white"/>
  <path d="M6.06641 11.1377H7.56641V19.1852H6.06641V11.1377Z" fill="white"/>
  <path d="M6.06641 28.8149H7.56641V36.8624H6.06641V28.8149Z" fill="white"/>
  <path d="M11.6367 40.9351H19.6842V42.4351H11.6367V40.9351Z" fill="white"/>
  <path d="M29.3164 40.9351H37.3639V42.4351H29.3164V40.9351Z" fill="white"/>
  <path d="M41.4336 28.8149H42.9336V36.8624H41.4336V28.8149Z" fill="white"/>
  <path d="M41.4336 11.1377H42.9336V19.1852H41.4336V11.1377Z" fill="white"/>
  <path d="M29.3164 5.56494H37.3639V7.06494H29.3164V5.56494Z" fill="white"/>
  <path d="M11.6367 5.56494H19.6842V7.06494H11.6367V5.56494Z" fill="white"/>
  <path d="M32.8167 18.3375C32.0863 17.582 29.8103 15.3364 29.1042 14.625L15.3867 28.3425C16.6758 29.6367 18.8641 31.8216 20.1567 33.1125L33.8742 19.395L32.8167 18.3375ZM30.1242 19.4325L20.2017 29.3625C20.0583 29.5 19.8679 29.5778 19.6692 29.58C19.5215 29.5781 19.3775 29.533 19.2552 29.4502C19.1328 29.3674 19.0374 29.2505 18.9808 29.1141C18.9241 28.9776 18.9087 28.8275 18.9364 28.6824C18.9641 28.5373 19.0338 28.4035 19.1367 28.2975L29.0667 18.375C29.2078 18.239 29.3967 18.1638 29.5926 18.1656C29.7886 18.1674 29.976 18.2461 30.1146 18.3847C30.2531 18.5232 30.3318 18.7106 30.3336 18.9066C30.3354 19.1026 30.2602 19.2914 30.1242 19.4325Z" fill="white"/>
  <path d="M33.8844 17.2801C34.1456 17.5423 34.677 18.0712 34.9419 18.3301L36.3444 16.9276C36.7658 16.5058 37.0025 15.9339 37.0025 15.3376C37.0025 14.7414 36.7658 14.1695 36.3444 13.7476L34.7544 12.1576C34.3325 11.7362 33.7606 11.4995 33.1644 11.4995C32.5681 11.4995 31.9962 11.7362 31.5744 12.1576L30.1719 13.5601L30.6969 14.0926C31.0041 14.398 33.512 16.9091 33.8844 17.2801Z" fill="white"/>
  <path d="M12.2168 36.2851C12.3227 36.3883 12.4562 36.4588 12.6012 36.488C12.7462 36.5173 12.8966 36.5041 13.0343 36.4501L18.9218 34.0051C18.0954 33.1787 15.2722 30.3554 14.4968 29.5801L12.0518 35.4676C11.9958 35.605 11.9817 35.7558 12.011 35.9012C12.0404 36.0466 12.1119 36.1801 12.2168 36.2851Z" fill="white"/>
</svg>