<svg width="99" height="19" viewBox="0 0 99 19" fill="none" xmlns="http://www.w3.org/2000/svg">
<path d="M0.44 18L3.704 1.2H6.128L10.22 11.964L14.312 1.2H16.736L20 18H17.012L14.996 7.608L11.216 17.616H9.212L5.432 7.608L3.428 18H0.44ZM26.8841 18.312C25.7801 18.312 24.7721 18.028 23.8601 17.46C22.9561 16.892 22.2321 16.132 21.6881 15.18C21.1521 14.22 20.8841 13.16 20.8841 12C20.8841 11.12 21.0401 10.3 21.3521 9.54C21.6641 8.772 22.0921 8.1 22.6361 7.524C23.1881 6.94 23.8281 6.484 24.5561 6.156C25.2841 5.828 26.0601 5.664 26.8841 5.664C27.9881 5.664 28.9921 5.948 29.8961 6.516C30.8081 7.084 31.5321 7.848 32.0681 8.808C32.6121 9.768 32.8841 10.832 32.8841 12C32.8841 12.872 32.7281 13.688 32.4161 14.448C32.1041 15.208 31.6721 15.88 31.1201 16.464C30.5761 17.04 29.9401 17.492 29.2121 17.82C28.4921 18.148 27.7161 18.312 26.8841 18.312ZM26.8841 15.384C27.4681 15.384 27.9921 15.228 28.4561 14.916C28.9201 14.604 29.2841 14.192 29.5481 13.68C29.8201 13.168 29.9561 12.608 29.9561 12C29.9561 11.376 29.8161 10.808 29.5361 10.296C29.2641 9.776 28.8921 9.364 28.4201 9.06C27.9561 8.748 27.4441 8.592 26.8841 8.592C26.3081 8.592 25.7881 8.748 25.3241 9.06C24.8601 9.372 24.4921 9.788 24.2201 10.308C23.9481 10.828 23.8121 11.392 23.8121 12C23.8121 12.632 23.9521 13.204 24.2321 13.716C24.5121 14.228 24.8841 14.636 25.3481 14.94C25.8201 15.236 26.3321 15.384 26.8841 15.384ZM43.8714 -1.43051e-06H46.7994V18H43.8714V16.5C43.4874 17.036 43.0034 17.472 42.4194 17.808C41.8354 18.144 41.1594 18.312 40.3914 18.312C39.5194 18.312 38.7034 18.148 37.9434 17.82C37.1834 17.492 36.5114 17.04 35.9274 16.464C35.3514 15.88 34.8994 15.208 34.5714 14.448C34.2434 13.688 34.0794 12.872 34.0794 12C34.0794 11.128 34.2434 10.312 34.5714 9.552C34.8994 8.792 35.3514 8.124 35.9274 7.548C36.5114 6.964 37.1834 6.508 37.9434 6.18C38.7034 5.852 39.5194 5.688 40.3914 5.688C41.1594 5.688 41.8354 5.856 42.4194 6.192C43.0034 6.52 43.4874 6.956 43.8714 7.5V-1.43051e-06ZM40.4274 15.492C41.0514 15.492 41.6034 15.336 42.0834 15.024C42.5634 14.712 42.9394 14.292 43.2114 13.764C43.4834 13.228 43.6194 12.64 43.6194 12C43.6194 11.352 43.4834 10.764 43.2114 10.236C42.9394 9.7 42.5594 9.276 42.0714 8.964C41.5914 8.652 41.0434 8.496 40.4274 8.496C39.8114 8.496 39.2474 8.656 38.7354 8.976C38.2314 9.288 37.8274 9.708 37.5234 10.236C37.2274 10.764 37.0794 11.352 37.0794 12C37.0794 12.648 37.2314 13.236 37.5354 13.764C37.8394 14.292 38.2434 14.712 38.7474 15.024C39.2594 15.336 39.8194 15.492 40.4274 15.492ZM49.2022 13.56V6H52.1302V12.792C52.1302 13.264 52.2462 13.696 52.4782 14.088C52.7102 14.472 53.0182 14.78 53.4022 15.012C53.7942 15.236 54.2222 15.348 54.6862 15.348C55.1662 15.348 55.5982 15.236 55.9822 15.012C56.3662 14.78 56.6742 14.472 56.9062 14.088C57.1382 13.696 57.2542 13.264 57.2542 12.792V6H60.1822L60.1942 18H57.2662L57.2542 16.908C56.8382 17.34 56.3462 17.684 55.7782 17.94C55.2102 18.188 54.6022 18.312 53.9542 18.312C53.0822 18.312 52.2862 18.1 51.5662 17.676C50.8462 17.244 50.2702 16.672 49.8382 15.96C49.4142 15.24 49.2022 14.44 49.2022 13.56ZM62.6666 18V-1.43051e-06H65.5946V18H62.6666ZM68.4791 6H71.4071V18H68.4791V6ZM69.9671 4.452C69.5351 4.452 69.1711 4.312 68.8751 4.032C68.5791 3.744 68.4311 3.384 68.4311 2.952C68.4311 2.528 68.5791 2.172 68.8751 1.884C69.1711 1.596 69.5311 1.452 69.9551 1.452C70.3791 1.452 70.7351 1.596 71.0231 1.884C71.3191 2.172 71.4671 2.528 71.4671 2.952C71.4671 3.384 71.3231 3.744 71.0351 4.032C70.7471 4.312 70.3911 4.452 69.9671 4.452ZM73.2725 18L77.6645 11.976L73.3085 5.988H76.9205L79.4645 9.48L82.0205 5.988H85.6325L81.2765 11.976L85.6685 18H82.0565L79.4645 14.448L76.8845 18H73.2725ZM92.1106 18.312C91.0066 18.312 89.9986 18.028 89.0866 17.46C88.1826 16.892 87.4586 16.132 86.9146 15.18C86.3786 14.22 86.1106 13.16 86.1106 12C86.1106 11.12 86.2666 10.3 86.5786 9.54C86.8906 8.772 87.3186 8.1 87.8626 7.524C88.4146 6.94 89.0546 6.484 89.7826 6.156C90.5106 5.828 91.2866 5.664 92.1106 5.664C93.2146 5.664 94.2186 5.948 95.1226 6.516C96.0346 7.084 96.7586 7.848 97.2946 8.808C97.8386 9.768 98.1106 10.832 98.1106 12C98.1106 12.872 97.9546 13.688 97.6426 14.448C97.3306 15.208 96.8986 15.88 96.3466 16.464C95.8026 17.04 95.1666 17.492 94.4386 17.82C93.7186 18.148 92.9426 18.312 92.1106 18.312ZM92.1106 15.384C92.6946 15.384 93.2186 15.228 93.6826 14.916C94.1466 14.604 94.5106 14.192 94.7746 13.68C95.0466 13.168 95.1826 12.608 95.1826 12C95.1826 11.376 95.0426 10.808 94.7626 10.296C94.4906 9.776 94.1186 9.364 93.6466 9.06C93.1826 8.748 92.6706 8.592 92.1106 8.592C91.5346 8.592 91.0146 8.748 90.5506 9.06C90.0866 9.372 89.7186 9.788 89.4466 10.308C89.1746 10.828 89.0386 11.392 89.0386 12C89.0386 12.632 89.1786 13.204 89.4586 13.716C89.7386 14.228 90.1106 14.636 90.5746 14.94C91.0466 15.236 91.5586 15.384 92.1106 15.384Z" fill="white"/>
</svg>
