<svg width="112" height="21" viewBox="0 0 112 21" fill="none" xmlns="http://www.w3.org/2000/svg">
<path d="M35.5198 19.9417C34.3493 19.9417 33.2781 19.6398 32.3103 19.036C31.3507 18.4322 30.5814 17.6257 30.0024 16.6166C29.4316 15.5992 29.1504 14.4743 29.1504 13.2419C29.1504 12.3073 29.3158 11.4388 29.6467 10.6323C29.9776 9.8176 30.4325 9.10213 31.0116 8.49419C31.5989 7.87385 32.2772 7.38998 33.0506 7.04258C33.8241 6.69519 34.6471 6.52149 35.524 6.52149C36.6945 6.52149 37.7615 6.82339 38.7211 7.4272C39.6889 8.031 40.4582 8.84159 41.029 9.85896C41.608 10.8763 41.8934 12.0095 41.8934 13.2461C41.8934 14.1724 41.7279 15.0368 41.3971 15.8432C41.0662 16.6497 40.6071 17.3652 40.0198 17.9814C39.4408 18.5935 38.7666 19.0732 37.9931 19.4206C37.228 19.768 36.4049 19.9417 35.5198 19.9417ZM35.5198 16.8317C36.1402 16.8317 36.6944 16.6662 37.1908 16.3354C37.6829 16.0045 38.0717 15.5662 38.3488 15.0244C38.6384 14.4826 38.7831 13.8871 38.7831 13.2419C38.7831 12.5968 38.6342 11.9764 38.3364 11.4346C38.0469 10.8846 37.654 10.4462 37.1536 10.1236C36.6614 9.79279 36.1154 9.62736 35.524 9.62736C34.9325 9.62736 34.3618 9.79279 33.8696 10.1236C33.3774 10.4545 32.9845 10.897 32.6991 11.447C32.4096 11.9971 32.2648 12.5968 32.2648 13.2419C32.2648 13.8871 32.4137 14.5198 32.7115 15.0616C33.0093 15.6034 33.4022 16.0376 33.8944 16.3602C34.3948 16.6745 34.9408 16.8317 35.524 16.8317H35.5198ZM53.5528 0.499985H56.663V19.6067H53.5528V18.0145C53.1433 18.5852 52.6304 19.0442 52.01 19.404C51.3896 19.7597 50.6741 19.9375 49.8552 19.9375C48.9287 19.9375 48.0643 19.7638 47.2578 19.4164C46.4513 19.0691 45.7357 18.5893 45.1195 17.9772C44.5073 17.3569 44.0276 16.6456 43.6801 15.8391C43.3327 15.0327 43.159 14.1642 43.159 13.2419C43.159 12.3197 43.3327 11.4512 43.6801 10.6447C44.0276 9.83828 44.5073 9.12695 45.1195 8.51901C45.7399 7.89866 46.4513 7.41479 47.2578 7.0674C48.0643 6.72 48.9329 6.5463 49.8552 6.5463C50.67 6.5463 51.3896 6.72414 52.01 7.0798C52.6304 7.4272 53.1433 7.89039 53.5528 8.46938V0.508255V0.499985ZM49.8966 16.9475C50.5583 16.9475 51.1456 16.782 51.6544 16.4512C52.1631 16.1203 52.5643 15.6737 52.8538 15.1154C53.1433 14.5447 53.288 13.9202 53.288 13.2419C53.288 12.5637 53.1433 11.9309 52.8538 11.3685C52.5643 10.7977 52.1631 10.3511 51.6419 10.0202C51.1332 9.6894 50.55 9.52397 49.8966 9.52397C49.2431 9.52397 48.6433 9.69353 48.1015 10.0327C47.568 10.3635 47.1378 10.8102 46.8152 11.3685C46.5009 11.9309 46.3437 12.5513 46.3437 13.2419C46.3437 13.9326 46.505 14.5529 46.8276 15.1154C47.1502 15.6778 47.5804 16.1203 48.1139 16.4512C48.6558 16.782 49.2513 16.9475 49.8966 16.9475ZM59.2108 14.8962V6.86889H62.3211V14.0773C62.3211 14.5777 62.4452 15.0368 62.6892 15.4545C62.9373 15.8639 63.2641 16.1906 63.6694 16.4346C64.0871 16.6704 64.538 16.7903 65.0343 16.7903C65.5306 16.7903 66.0021 16.6704 66.4116 16.4346C66.821 16.1865 67.1478 15.8598 67.3918 15.4545C67.64 15.0368 67.7599 14.5777 67.7599 14.0773V6.86889H70.8702L70.8826 19.6067H67.7723L67.7599 18.4487C67.3174 18.9078 66.7962 19.2717 66.1924 19.5447C65.5885 19.8093 64.9433 19.9375 64.2567 19.9375C63.3303 19.9375 62.4865 19.7142 61.7213 19.2634C60.9562 18.8044 60.3441 18.1964 59.885 17.4437C59.4341 16.6786 59.2108 15.8308 59.2108 14.8962ZM73.5048 19.6067V0.499985H76.6151V19.6067H73.5048ZM79.6757 6.86889H82.786V19.6067H79.6757V6.86889ZM81.2557 5.22703C80.7966 5.22703 80.4119 5.07815 80.0976 4.78038C79.7832 4.47434 79.6261 4.09386 79.6261 3.6348C79.6261 3.17575 79.7832 2.80768 80.0976 2.50164C80.4119 2.1956 80.7924 2.04258 81.2432 2.04258C81.6941 2.04258 82.0704 2.1956 82.3765 2.50164C82.6908 2.80768 82.848 3.18402 82.848 3.6348C82.848 4.08559 82.695 4.47434 82.3889 4.78038C82.0829 5.07815 81.7065 5.22703 81.2557 5.22703ZM84.7423 19.6067L89.4036 13.213L84.7795 6.85648H88.6136L91.3144 10.562L94.0276 6.85648H97.8617L93.2376 13.213L97.8989 19.6067H94.0648L91.3144 15.835L88.5764 19.6067H84.7423ZM104.74 19.9417C103.569 19.9417 102.498 19.6398 101.53 19.036C100.571 18.4322 99.8015 17.6257 99.2224 16.6166C98.6517 15.5992 98.3704 14.4743 98.3704 13.2419C98.3704 12.3073 98.5358 11.4388 98.8667 10.6323C99.1976 9.8176 99.6525 9.10213 100.232 8.49419C100.819 7.87385 101.497 7.38998 102.271 7.04258C103.044 6.69519 103.867 6.52149 104.744 6.52149C105.914 6.52149 106.982 6.82339 107.941 7.4272C108.909 8.031 109.678 8.84159 110.249 9.85896C110.828 10.8763 111.113 12.0095 111.113 13.2461C111.113 14.1724 110.948 15.0368 110.617 15.8432C110.286 16.6497 109.827 17.3652 109.24 17.9814C108.661 18.5935 107.987 19.0732 107.213 19.4206C106.448 19.768 105.625 19.9417 104.74 19.9417ZM104.74 16.8317C105.36 16.8317 105.914 16.6662 106.411 16.3354C106.903 16.0045 107.292 15.5662 107.569 15.0244C107.858 14.4826 108.003 13.8871 108.003 13.2419C108.003 12.5968 107.854 11.9764 107.556 11.4346C107.267 10.8846 106.874 10.4462 106.374 10.1236C105.881 9.79279 105.335 9.62736 104.744 9.62736C104.153 9.62736 103.582 9.79279 103.09 10.1236C102.597 10.4545 102.204 10.897 101.919 11.447C101.63 11.9971 101.485 12.5968 101.485 13.2419C101.485 13.8871 101.634 14.5198 101.932 15.0616C102.229 15.6034 102.622 16.0376 103.114 16.3602C103.615 16.6745 104.161 16.8317 104.744 16.8317H104.74Z" fill="white"/>
<path d="M5.18653 6.05833C5.19066 4.32963 5.18653 2.59266 5.18653 0.86396H10.3276C11.7917 0.86396 14.1575 2.69192 14.8234 3.99051L15.5844 5.83088V0.86396H20.8371C22.8514 0.86396 26.0899 3.9781 26.0899 6.00457V20.4959H20.8951V7.85321C20.8951 7.80358 20.5973 7.16256 20.5311 7.0633C20.225 6.59184 19.435 6.06247 18.8767 6.06247H15.5844C15.5182 6.22376 15.7002 6.40987 15.7002 6.46777V20.5H10.3896V7.74155C10.3896 7.60921 9.98428 6.90201 9.8602 6.76967C8.89237 5.7523 6.53073 6.07902 5.19481 6.06661C5.1824 10.8764 5.20308 15.6903 5.19481 20.5H0V6.06661C1.72885 6.08315 3.46596 6.04593 5.19481 6.06661L5.18653 6.05833Z" fill="#0099FF"/>
</svg>
