<svg width="20" height="19" viewBox="0 0 20 19" fill="none" xmlns="http://www.w3.org/2000/svg">
<g id="fluent:mail-32-filled">
<path id="Vector" d="M1.68987 5.52366C1.72001 4.83591 2.01444 4.18633 2.51177 3.71035C3.00911 3.23436 3.67097 2.9687 4.35938 2.96875H15.6406C16.329 2.9687 16.9909 3.23436 17.4882 3.71035C17.9856 4.18633 18.28 4.83591 18.3101 5.52366L17.4338 6.01053L10 10.013L2.56625 6.01053L1.68987 5.52366ZM1.6875 6.88038V13.3594C1.6875 14.068 1.969 14.7476 2.47007 15.2487C2.97115 15.7497 3.65075 16.0312 4.35938 16.0312H15.6406C16.3492 16.0312 17.0289 15.7497 17.5299 15.2487C18.031 14.7476 18.3125 14.068 18.3125 13.3594V6.88038L18.0002 7.05434L10.2814 11.2106C10.1949 11.2572 10.0982 11.2815 10 11.2815C9.90176 11.2815 9.80506 11.2572 9.71856 11.2106L1.99269 7.05019L1.6875 6.88038Z" fill="#0099FF"/>
</g>
</svg>
