<svg width="20" height="19" viewBox="0 0 20 19" fill="none" xmlns="http://www.w3.org/2000/svg">
<g id="ic:round-phone">
<path id="Vector" d="M15.7263 12.0807L13.7155 11.8511C13.4791 11.8234 13.2394 11.8496 13.0145 11.9277C12.7897 12.0059 12.5854 12.134 12.4172 12.3024L10.9605 13.7591C8.71328 12.6158 6.88665 10.7892 5.74343 8.54198L7.20801 7.0774C7.54843 6.73698 7.71468 6.26198 7.65926 5.77906L7.42968 3.78406C7.38496 3.3978 7.19967 3.0415 6.90913 2.78308C6.61858 2.52465 6.2431 2.38218 5.85426 2.38281H4.48468C3.5901 2.38281 2.84593 3.12698 2.90135 4.02156C3.32093 10.7824 8.72801 16.1816 15.4809 16.6011C16.3755 16.6566 17.1197 15.9124 17.1197 15.0178V13.6482C17.1276 12.8486 16.5259 12.1757 15.7263 12.0807Z" fill="#0099FF"/>
</g>
</svg>
