<svg width="1920" height="885" viewBox="0 0 1920 885" fill="none" xmlns="http://www.w3.org/2000/svg">
<g opacity="0.15" clip-path="url(#clip0_2001_353)">
<rect x="-185.5" y="252.5" width="381" height="381" fill="url(#paint0_linear_2001_353)" fill-opacity="0.1"/>
<rect x="-185.5" y="252.5" width="381" height="381" stroke="url(#paint1_linear_2001_353)"/>
<rect x="196.5" y="1015.5" width="381" height="381" transform="rotate(-90 196.5 1015.5)" stroke="url(#paint2_linear_2001_353)"/>
<rect x="577.5" y="-129.5" width="381" height="381" transform="rotate(90 577.5 -129.5)" stroke="url(#paint3_linear_2001_353)"/>
<rect x="959.5" y="633.5" width="381" height="381" transform="rotate(180 959.5 633.5)" stroke="url(#paint4_linear_2001_353)"/>
<rect x="1341.5" y="634.5" width="381" height="381" transform="rotate(90 1341.5 634.5)" fill="url(#paint5_linear_2001_353)" fill-opacity="0.1"/>
<rect x="1341.5" y="634.5" width="381" height="381" transform="rotate(90 1341.5 634.5)" stroke="url(#paint6_linear_2001_353)"/>
<rect x="1341.5" y="251.5" width="381" height="381" transform="rotate(180 1341.5 251.5)" fill="url(#paint7_linear_2001_353)" fill-opacity="0.1"/>
<rect x="1341.5" y="251.5" width="381" height="381" transform="rotate(180 1341.5 251.5)" stroke="url(#paint8_linear_2001_353)"/>
<rect x="1723.5" y="633.5" width="381" height="381" transform="rotate(180 1723.5 633.5)" stroke="url(#paint9_linear_2001_353)"/>
<rect x="2105.5" y="634.5" width="381" height="381" transform="rotate(90 2105.5 634.5)" stroke="url(#paint10_linear_2001_353)"/>
<rect x="2105.5" y="-129.5" width="381" height="381" transform="rotate(90 2105.5 -129.5)" fill="url(#paint11_linear_2001_353)" fill-opacity="0.1"/>
<rect x="2105.5" y="-129.5" width="381" height="381" transform="rotate(90 2105.5 -129.5)" stroke="url(#paint12_linear_2001_353)"/>
<circle cx="578" cy="252" r="2" fill="#D9D9D9"/>
<circle cx="578" cy="634" r="2" fill="#D9D9D9"/>
<circle cx="960" cy="252" r="2" fill="#D9D9D9"/>
<circle cx="960" cy="634" r="2" fill="#D9D9D9"/>
<circle cx="1342" cy="252" r="2" fill="#D9D9D9"/>
<circle cx="1342" cy="634" r="2" fill="#D9D9D9"/>
<circle cx="1724" cy="252" r="2" fill="#D9D9D9"/>
<circle cx="1724" cy="634" r="2" fill="#D9D9D9"/>
<circle cx="196" cy="252" r="2" fill="#D9D9D9"/>
<circle cx="196" cy="634" r="2" fill="#D9D9D9"/>
</g>
<defs>
<linearGradient id="paint0_linear_2001_353" x1="5" y1="252" x2="5" y2="634" gradientUnits="userSpaceOnUse">
<stop stop-color="white"/>
<stop offset="1" stop-color="white" stop-opacity="0"/>
</linearGradient>
<linearGradient id="paint1_linear_2001_353" x1="5" y1="252" x2="5" y2="634" gradientUnits="userSpaceOnUse">
<stop stop-color="#808080"/>
<stop offset="1" stop-color="#808080" stop-opacity="0.2"/>
</linearGradient>
<linearGradient id="paint2_linear_2001_353" x1="387" y1="1016" x2="387" y2="1398" gradientUnits="userSpaceOnUse">
<stop stop-color="#808080"/>
<stop offset="1" stop-color="#808080" stop-opacity="0.2"/>
</linearGradient>
<linearGradient id="paint3_linear_2001_353" x1="769" y1="-130" x2="769" y2="252" gradientUnits="userSpaceOnUse">
<stop stop-color="#808080"/>
<stop offset="1" stop-color="#808080" stop-opacity="0.2"/>
</linearGradient>
<linearGradient id="paint4_linear_2001_353" x1="1151" y1="634" x2="1151" y2="1016" gradientUnits="userSpaceOnUse">
<stop stop-color="#808080"/>
<stop offset="1" stop-color="#808080" stop-opacity="0.2"/>
</linearGradient>
<linearGradient id="paint5_linear_2001_353" x1="1533" y1="1016" x2="1533" y2="634" gradientUnits="userSpaceOnUse">
<stop stop-color="white"/>
<stop offset="1" stop-color="white" stop-opacity="0"/>
</linearGradient>
<linearGradient id="paint6_linear_2001_353" x1="1533" y1="634" x2="1533" y2="1016" gradientUnits="userSpaceOnUse">
<stop stop-color="#808080"/>
<stop offset="1" stop-color="#808080" stop-opacity="0.2"/>
</linearGradient>
<linearGradient id="paint7_linear_2001_353" x1="1342" y1="443" x2="1724" y2="443" gradientUnits="userSpaceOnUse">
<stop stop-color="white"/>
<stop offset="1" stop-color="#999999" stop-opacity="0"/>
</linearGradient>
<linearGradient id="paint8_linear_2001_353" x1="1533" y1="252" x2="1533" y2="634" gradientUnits="userSpaceOnUse">
<stop stop-color="#808080"/>
<stop offset="1" stop-color="#808080" stop-opacity="0.2"/>
</linearGradient>
<linearGradient id="paint9_linear_2001_353" x1="1915" y1="634" x2="1915" y2="1016" gradientUnits="userSpaceOnUse">
<stop stop-color="#808080"/>
<stop offset="1" stop-color="#808080" stop-opacity="0.2"/>
</linearGradient>
<linearGradient id="paint10_linear_2001_353" x1="2297" y1="634" x2="2297" y2="1016" gradientUnits="userSpaceOnUse">
<stop stop-color="#808080"/>
<stop offset="1" stop-color="#808080" stop-opacity="0.2"/>
</linearGradient>
<linearGradient id="paint11_linear_2001_353" x1="2297" y1="-130" x2="2297" y2="252" gradientUnits="userSpaceOnUse">
<stop stop-color="white"/>
<stop offset="1" stop-color="white" stop-opacity="0"/>
</linearGradient>
<linearGradient id="paint12_linear_2001_353" x1="2297" y1="-130" x2="2297" y2="252" gradientUnits="userSpaceOnUse">
<stop stop-color="#808080"/>
<stop offset="1" stop-color="#808080" stop-opacity="0.2"/>
</linearGradient>
<clipPath id="clip0_2001_353">
<rect width="1920" height="885" fill="white"/>
</clipPath>
</defs>
</svg>
