<svg width="20" height="19" viewBox="0 0 20 19" fill="none" xmlns="http://www.w3.org/2000/svg">
<g id="subway:world-1" clip-path="url(#clip0_483_3830)">
<path id="Vector" d="M3.98086 4.25273C3.80645 4.29355 3.91777 4.28613 3.77305 4.30469C3.15332 4.43828 3.61348 4.55703 3.98086 4.25273ZM14.8799 4.50137C14.9244 4.47168 15.0803 4.31953 14.5941 4.17109C14.6238 4.32324 14.4939 4.3084 14.4939 4.39375C14.8539 4.72031 15.0023 5.28809 15.4625 5.40684C15.5516 4.99863 15.0543 4.79824 14.8799 4.50137ZM3.65059 4.13398C3.70625 4.46426 3.95488 3.78516 3.95859 3.54395C3.86211 3.59961 3.76562 3.65527 3.66543 3.6998C3.89922 3.81855 3.69512 3.94473 3.44277 4.13398C2.93066 4.77227 3.92148 3.63672 3.65059 4.13398ZM10 0C4.75273 0 0.5 4.25273 0.5 9.5C0.5 14.7436 4.75273 19 10 19C15.2473 19 19.5 14.7436 19.5 9.5C19.5 4.25273 15.2473 0 10 0ZM10.2523 3.18398L10.2969 3.19883C10.1187 3.42891 11.2246 4.10059 10.4305 4.15625C9.68828 4.36777 10.7422 3.96328 10.167 4.03379C10.4713 3.61074 9.92578 3.60332 10.2523 3.18398ZM5.74727 3.79258C5.48008 3.56992 4.64141 4.09688 4.93457 3.9707C5.66191 3.68496 4.98281 4.00039 5.15352 4.3418C4.99766 4.66465 5.10156 4.02266 4.71562 4.40488C4.4373 4.46797 3.75449 5.09883 3.83984 4.90586C3.81758 5.20645 3.02715 5.5627 2.91953 6.06367C2.65977 6.75762 2.85645 6.03769 2.8082 5.7668C2.43711 5.29551 1.76172 6.56465 1.96211 7.06562C2.2998 6.47187 2.27383 7.00254 2.02891 7.26602C2.27754 7.72246 1.80254 8.31621 2.27383 8.65391C2.48164 8.70215 2.89727 7.95625 2.71543 8.73184C2.8416 8.06016 3.06426 8.89141 3.42422 8.70586C3.44648 9.0584 3.66543 8.89512 3.71367 9.32187C4.31484 9.27734 4.86406 10.2941 4.14785 10.4871C4.25547 10.4574 4.46699 10.6467 4.71191 10.502C5.12754 10.8322 6.22227 10.873 6.25195 11.6895C5.49863 12.0494 6.06641 13.0365 5.41328 13.3891C4.66367 13.2777 5.15723 14.3131 4.8418 14.1943C4.96797 14.9402 4.08477 14.0979 4.42617 14.5098C5.05332 14.8957 4.15156 14.8178 4.43359 15.0998C4.11816 15.033 4.63027 15.6861 4.71562 15.9273C5.16836 16.6621 4.32598 15.7641 4.07734 15.5191C3.83984 15.0441 3.27949 14.135 3.12363 13.3891C3.03457 12.3055 2.1959 11.5781 2.00293 10.5205C1.80996 9.93047 2.53359 8.98418 2.14395 8.65391C1.80625 8.39043 1.94355 7.48867 1.74316 7.01367C2.24414 4.84277 3.83613 3.01328 5.74727 1.92969C5.55059 2.07441 6.87168 1.55488 6.71953 1.68105C6.67871 1.77383 7.49141 1.32852 7.98125 1.26172C7.9293 1.26914 6.7084 1.70703 7.04609 1.64766C6.52285 1.90371 6.99414 1.75898 7.25391 1.6291C6.73438 2.01133 6.33359 1.90371 5.74355 2.24141C5.1498 2.39727 5.27227 3.01328 4.84922 3.32129C5.09785 3.36582 5.72129 2.6793 6.08496 2.43809C6.91992 2.03359 5.66191 3.17285 6.45605 2.68301C6.18887 2.93164 6.24453 3.32871 6.08125 3.44004C5.99961 3.41777 6.4041 3.63301 5.74727 3.79258ZM7.04609 2.08555C6.96074 2.20059 6.84199 2.44922 6.77148 2.29707C6.675 2.34531 6.63789 2.55313 6.45605 2.38613C6.56367 2.3082 6.675 2.12266 6.46348 2.2377C6.55996 2.13379 7.4209 1.84062 7.37266 1.7293C7.5248 1.63281 7.50996 1.58457 7.33555 1.64395C7.24648 1.61426 7.54707 1.36191 7.94785 1.32852C8.00352 1.32852 8.02578 1.36563 7.92559 1.35449C7.3207 1.54004 7.58047 1.48809 7.98867 1.35449C7.83281 1.44355 7.7252 1.46953 7.69922 1.51035C8.10742 1.36191 7.67695 1.61797 7.76973 1.59941C7.65469 1.65879 7.78828 1.67734 7.56562 1.7627C7.60645 1.7293 7.20195 2.00391 7.44316 1.92227C7.20938 2.14492 7.10547 2.14863 7.04609 2.08555ZM7.40234 2.61621C7.40977 2.25996 7.92188 2.03359 7.85879 2.01504C8.48965 1.71816 7.63984 2.02617 8.13711 1.75898C8.32266 1.74043 8.71602 1.14668 9.26152 1.10957C9.8627 0.927734 9.58437 1.1207 10.0297 0.95L9.94063 1.02422C9.86269 1.03535 9.95918 1.17266 9.67715 1.38047C9.64746 1.70332 9.13906 1.55488 9.39141 1.9C9.22813 1.66621 8.9832 1.89258 9.29121 1.91484C8.96094 2.16719 8.19277 2.21172 7.82539 2.63105C7.58789 2.97246 7.36895 2.86484 7.40234 2.61621ZM10.0408 3.80371C9.78848 4.4123 9.54355 3.71465 9.98887 3.60332C10.1002 3.6627 10.1447 3.68125 10.0408 3.80371ZM9.09082 2.58652C9.0166 2.31191 9.07598 2.45664 9.51758 2.32676C9.82187 2.5457 9.24668 2.69043 9.09082 2.58652ZM16.0006 13.4781C15.6518 12.877 16.4236 12.3203 16.6834 11.8156C16.65 12.4057 16.5758 12.9883 16.0006 13.4781ZM17.3143 6.60918C16.9357 6.63887 16.5943 6.72793 16.2529 6.5127C15.4662 5.65176 16.3977 7.48496 16.6574 6.73535C17.5926 7.0916 16.6426 8.62793 16.0525 8.46836C15.7223 7.75586 15.3141 6.97285 14.5941 6.62402C15.1471 7.23633 15.4217 7.98965 16.0154 8.54258C16.0563 9.31445 16.8393 8.26055 16.791 8.85801C16.8652 9.88594 15.6295 10.502 15.8447 11.5336C16.3049 12.4725 14.9578 12.6432 15.11 13.4855C14.5682 14.0904 13.9893 14.9068 13.017 14.777C13.017 14.2648 12.7572 13.8307 12.6979 13.3037C12.1709 12.6357 13.2545 11.9195 12.5828 11.2219C11.8072 11.0475 12.7424 9.97871 11.9445 10.0789C11.4658 9.6002 10.7645 10.0641 10.0779 10.0678C9.21699 10.1494 8.33008 9.01016 8.71231 8.20488C8.40801 7.36621 9.67715 7.12129 9.71055 6.38281C10.3191 5.87441 11.1838 5.9375 12.0076 5.81875C11.9482 6.40879 12.5717 6.4125 13.043 6.60918C13.3064 5.9709 14.1266 6.71309 14.6869 6.30859C14.8799 5.36602 14.1414 5.93379 13.7184 5.6332C13.2063 4.88359 14.8131 5.24727 14.6461 4.85391C14.0227 4.8502 14.3752 4.08574 13.9336 4.5125C14.3307 4.58301 13.8631 4.89473 13.8742 4.53848C13.273 4.36406 13.852 5.22129 13.5477 5.30293C13.0838 5.10996 13.3027 5.52187 13.351 5.58496C13.1506 6.01914 12.9057 4.94668 12.3379 4.97637C11.7738 4.46055 12.1152 5.21016 12.6051 5.33262C12.5012 5.3623 12.6645 5.78906 12.5346 5.60723C12.1301 5.05059 11.3619 4.67949 10.9055 5.3623C10.8572 6.00059 9.5584 6.18242 9.76621 5.43652C9.46191 4.66465 10.7088 5.41426 10.5938 4.79824C9.79219 4.26758 10.8127 4.43828 11.0836 3.94102C11.6996 3.95957 11.1096 3.43633 11.399 3.28418C11.3693 3.85195 11.8703 3.74434 12.2674 3.63672C12.1709 3.31016 12.5049 3.32129 12.3008 3.05039C13.2211 2.68301 11.5994 3.22109 11.926 2.41582C11.5289 2.14121 11.759 3.0207 11.926 3.11348C11.9371 3.38438 11.707 3.71836 11.3916 3.15059C10.9314 3.45117 10.9797 2.84629 10.95 2.90937C10.898 2.67559 11.2988 2.66445 11.3025 2.25625C11.2691 1.99648 11.2766 1.85918 11.4621 1.84434C11.477 1.88145 12.2229 1.89258 12.4863 2.20059C11.7664 2.05586 12.3787 2.31934 12.7016 2.46777C12.3564 2.19688 12.8389 2.46777 12.5568 2.15977C12.6682 2.18203 12.2488 1.73672 12.6793 2.12637C12.4455 1.84805 13.1357 1.92969 12.7275 1.72188C13.325 1.88887 12.9725 1.73672 12.6199 1.58457C11.6477 1.00566 14.3381 2.36758 13.2396 1.7627C13.941 1.91484 11.7404 1.2209 12.7424 1.5252C12.3602 1.3582 12.7312 1.45098 13.0764 1.55859C12.4566 1.36563 11.5289 1.00566 11.566 0.99082C11.7812 1.00566 11.9928 1.05391 12.1969 1.11328C12.8314 1.30254 12.015 1.06875 12.1895 1.07246C14.3715 1.63281 16.2826 3.09492 17.4441 5.00605C17.715 5.2918 18.4535 7.18066 18.0676 6.34199C18.242 7.00996 18.268 7.72988 18.3607 8.41269C18.1678 8.19746 17.9525 7.40332 17.767 6.96172C17.6891 7.13242 17.6 6.72051 17.3143 6.60918Z" fill="#0099FF"/>
</g>
<defs>
<clipPath id="clip0_483_3830">
<rect width="19" height="19" fill="white" transform="translate(0.5)"/>
</clipPath>
</defs>
</svg>
