<svg width="422" height="108" viewBox="0 0 422 108" fill="none" xmlns="http://www.w3.org/2000/svg">
<g filter="url(#filter0_d_72_5376)">
<rect x="20" y="20" width="382" height="68" rx="24" fill="black" fill-opacity="0.15" shape-rendering="crispEdges"/>
<rect x="20.5" y="20.5" width="381" height="67" rx="23.5" stroke="white" stroke-opacity="0.15" shape-rendering="crispEdges"/>
<rect x="36" y="36" width="36" height="36" rx="8" fill="#0099FF"/>
<path d="M49.921 44.2999C48.936 43.5319 47.5 44.2339 47.5 45.4819V62.4909C47.5 63.9129 49.295 64.5369 50.177 63.4209L54.367 58.1209C54.5216 57.9256 54.7184 57.7678 54.9427 57.6594C55.167 57.551 55.4129 57.4948 55.662 57.4949H62.514C63.942 57.4949 64.563 55.6869 63.435 54.8109L49.921 44.2999Z" fill="white"/>
<rect width="1" height="24" transform="translate(88 42)" fill="white" fill-opacity="0.5"/>
<path d="M112.2 47.4C112.2 47.8774 112.01 48.3352 111.673 48.6728C111.335 49.0103 110.877 49.2 110.4 49.2C109.923 49.2 109.465 49.0103 109.127 48.6728C108.79 48.3352 108.6 47.8774 108.6 47.4C108.6 46.9226 108.79 46.4647 109.127 46.1272C109.465 45.7896 109.923 45.6 110.4 45.6C110.877 45.6 111.335 45.7896 111.673 46.1272C112.01 46.4647 112.2 46.9226 112.2 47.4ZM125.4 47.4C125.4 47.8774 125.21 48.3352 124.873 48.6728C124.535 49.0103 124.077 49.2 123.6 49.2C123.123 49.2 122.665 49.0103 122.327 48.6728C121.99 48.3352 121.8 47.8774 121.8 47.4C121.8 46.9226 121.99 46.4647 122.327 46.1272C122.665 45.7896 123.123 45.6 123.6 45.6C124.077 45.6 124.535 45.7896 124.873 46.1272C125.21 46.4647 125.4 46.9226 125.4 47.4ZM112.2 60.6C112.2 61.0774 112.01 61.5352 111.673 61.8728C111.335 62.2103 110.877 62.4 110.4 62.4C109.923 62.4 109.465 62.2103 109.127 61.8728C108.79 61.5352 108.6 61.0774 108.6 60.6C108.6 60.1226 108.79 59.6647 109.127 59.3272C109.465 58.9896 109.923 58.8 110.4 58.8C110.877 58.8 111.335 58.9896 111.673 59.3272C112.01 59.6647 112.2 60.1226 112.2 60.6ZM125.4 60.6C125.4 61.0774 125.21 61.5352 124.873 61.8728C124.535 62.2103 124.077 62.4 123.6 62.4C123.123 62.4 122.665 62.2103 122.327 61.8728C121.99 61.5352 121.8 61.0774 121.8 60.6C121.8 60.1226 121.99 59.6647 122.327 59.3272C122.665 58.9896 123.123 58.8 123.6 58.8C124.077 58.8 124.535 58.9896 124.873 59.3272C125.21 59.6647 125.4 60.1226 125.4 60.6ZM113.4 47.7C113.4 47.4613 113.495 47.2324 113.664 47.0636C113.832 46.8948 114.061 46.8 114.3 46.8H119.7C119.939 46.8 120.168 46.8948 120.336 47.0636C120.505 47.2324 120.6 47.4613 120.6 47.7C120.6 47.9387 120.505 48.1676 120.336 48.3364C120.168 48.5052 119.939 48.6 119.7 48.6H114.3C114.061 48.6 113.832 48.5052 113.664 48.3364C113.495 48.1676 113.4 47.9387 113.4 47.7ZM113.4 60.3C113.4 60.0613 113.495 59.8324 113.664 59.6636C113.832 59.4948 114.061 59.4 114.3 59.4H119.7C119.939 59.4 120.168 59.4948 120.336 59.6636C120.505 59.8324 120.6 60.0613 120.6 60.3C120.6 60.5387 120.505 60.7676 120.336 60.9364C120.168 61.1052 119.939 61.2 119.7 61.2H114.3C114.061 61.2 113.832 61.1052 113.664 60.9364C113.495 60.7676 113.4 60.5387 113.4 60.3ZM109.8 51.3C109.8 51.0613 109.895 50.8324 110.064 50.6636C110.232 50.4948 110.461 50.4 110.7 50.4C110.939 50.4 111.168 50.4948 111.336 50.6636C111.505 50.8324 111.6 51.0613 111.6 51.3V56.7C111.6 56.9387 111.505 57.1676 111.336 57.3364C111.168 57.5052 110.939 57.6 110.7 57.6C110.461 57.6 110.232 57.5052 110.064 57.3364C109.895 57.1676 109.8 56.9387 109.8 56.7V51.3ZM122.4 51.3C122.4 51.0613 122.495 50.8324 122.664 50.6636C122.832 50.4948 123.061 50.4 123.3 50.4C123.539 50.4 123.768 50.4948 123.936 50.6636C124.105 50.8324 124.2 51.0613 124.2 51.3V56.7C124.2 56.9387 124.105 57.1676 123.936 57.3364C123.768 57.5052 123.539 57.6 123.3 57.6C123.061 57.6 122.832 57.5052 122.664 57.3364C122.495 57.1676 122.4 56.9387 122.4 56.7V51.3Z" fill="white"/>
<path d="M165 56C164.908 56.064 163 58.083 163 59.5C163 60.994 163.949 61.948 165 62C165.906 62.044 167 61.109 167 59.5C167 58 165.092 56.064 165 56ZM154.586 62C154.964 62.378 155.466 62.586 156 62.586C156.534 62.586 157.036 62.378 157.414 62L164.414 55L163.707 54.293L156 46.586L153.707 44.293L152.293 45.707L154.586 48L149 53.586C148.622 53.964 148.414 54.466 148.414 55C148.414 55.534 148.622 56.036 149 56.414L154.586 62ZM156 49.414L161.586 55H150.414L156 49.414Z" fill="white"/>
<rect width="1" height="24" transform="translate(185 42)" fill="white" fill-opacity="0.5"/>
<path d="M214 43.875C211.997 43.875 210.04 44.4688 208.375 45.5814C206.71 46.6939 205.412 48.2752 204.646 50.1253C203.879 51.9754 203.679 54.0112 204.07 55.9753C204.46 57.9393 205.425 59.7435 206.841 61.1595C208.257 62.5755 210.061 63.5398 212.025 63.9305C213.989 64.3211 216.025 64.1206 217.875 63.3543C219.725 62.5879 221.306 61.2902 222.419 59.6251C223.531 57.9601 224.125 56.0025 224.125 54C224.122 51.3156 223.054 48.742 221.156 46.8438C219.258 44.9457 216.684 43.878 214 43.875ZM221.875 53.9869C221.823 54.1191 221.341 54.6534 219.73 55.1428C219.189 55.304 218.639 55.4339 218.083 55.5319C218.111 55.0219 218.125 54.5091 218.125 54C218.125 51.3891 217.755 48.6722 216.977 46.7109C218.422 47.3026 219.658 48.3099 220.53 49.6052C221.403 50.9005 221.87 52.4254 221.875 53.9869ZM213.987 46.125C214.119 46.1775 214.653 46.6594 215.143 48.27C215.612 49.8262 215.875 51.8616 215.875 54C215.875 54.615 215.853 55.2188 215.811 55.8113C215.222 55.8525 214.615 55.875 214 55.875C211.862 55.875 209.826 55.6144 208.27 55.1428C206.659 54.6562 206.178 54.1191 206.125 53.9869C206.131 51.9036 206.961 49.9074 208.434 48.4342C209.907 46.9611 211.904 46.1309 213.987 46.125ZM206.711 56.9766C208.672 57.7547 211.389 58.125 214 58.125C214.509 58.125 215.022 58.1109 215.532 58.0819C215.434 58.6383 215.304 59.1885 215.143 59.73C214.656 61.3406 214.119 61.8225 213.987 61.875C212.425 61.8704 210.9 61.4025 209.605 60.5305C208.31 59.6584 207.303 58.4216 206.711 56.9766ZM216.977 61.2891C217.369 60.2981 217.659 59.1141 217.848 57.8484C219.114 57.6609 220.298 57.3694 221.289 56.9766C220.891 57.9449 220.305 58.8246 219.565 59.5649C218.825 60.3051 217.945 60.8912 216.977 61.2891Z" fill="white"/>
<path d="M254 44C248.47 44 244 48.47 244 54C244 59.53 248.47 64 254 64C259.53 64 264 59.53 264 54C264 48.47 259.53 44 254 44ZM254 62C249.58 62 246 58.42 246 54C246 49.58 249.58 46 254 46C258.42 46 262 49.58 262 54C262 58.42 258.42 62 254 62Z" fill="white"/>
<path d="M285 51.4C285 49.16 285 48.04 285.436 47.184C285.819 46.4314 286.431 45.8195 287.184 45.436C288.04 45 289.16 45 291.4 45H296.6C298.84 45 299.96 45 300.816 45.436C301.569 45.8195 302.181 46.4314 302.564 47.184C303 48.04 303 49.16 303 51.4V56.6C303 58.84 303 59.96 302.564 60.816C302.181 61.5686 301.569 62.1805 300.816 62.564C299.96 63 298.84 63 296.6 63H291.4C289.16 63 288.04 63 287.184 62.564C286.431 62.1805 285.819 61.5686 285.436 60.816C285 59.96 285 58.84 285 56.6V51.4Z" stroke="white" strokeWidth="1.5" stroke-linecap="round" stroke-linejoin="round"/>
<path d="M334 64V54M334 54L342.73 48.96M334 54L325.27 48.96M343 58.008V49.99C342.999 49.6411 342.907 49.2985 342.731 48.997C342.555 48.6955 342.303 48.4457 342 48.273L335 44.265C334.695 44.0914 334.351 44.0001 334 44.0001C333.649 44.0001 333.305 44.0914 333 44.265L326 48.273C325.381 48.628 325 49.283 325 49.991V58.009C325 58.718 325.381 59.372 326 59.726L333 63.734C333.305 63.9076 333.649 63.9989 334 63.9989C334.351 63.9989 334.695 63.9076 335 63.734L342 59.726C342.619 59.371 343 58.716 343 58.008Z" stroke="white" strokeWidth="2" stroke-linecap="round" stroke-linejoin="round"/>
<g clip-path="url(#clip0_72_5376)">
<path d="M367 46C366.735 46 366.48 46.1054 366.293 46.2929C366.105 46.4804 366 46.7348 366 47C366 47.2652 366.105 47.5196 366.293 47.7071C366.48 47.8946 366.735 48 367 48H373V62C373 62.2652 373.105 62.5196 373.293 62.7071C373.48 62.8946 373.735 63 374 63C374.265 63 374.52 62.8946 374.707 62.7071C374.895 62.5196 375 62.2652 375 62V48H381C381.265 48 381.52 47.8946 381.707 47.7071C381.895 47.5196 382 47.2652 382 47C382 46.7348 381.895 46.4804 381.707 46.2929C381.52 46.1054 381.265 46 381 46H367Z" fill="white"/>
</g>
</g>
<defs>
<filter id="filter0_d_72_5376" x="0" y="0" width="422" height="108" filterUnits="userSpaceOnUse" color-interpolation-filters="sRGB">
<feFlood flood-opacity="0" result="BackgroundImageFix"/>
<feColorMatrix in="SourceAlpha" type="matrix" values="0 0 0 0 0 0 0 0 0 0 0 0 0 0 0 0 0 0 127 0" result="hardAlpha"/>
<feOffset/>
<feGaussianBlur stdDeviation="10"/>
<feComposite in2="hardAlpha" operator="out"/>
<feColorMatrix type="matrix" values="0 0 0 0 0 0 0 0 0 0 0 0 0 0 0 0 0 0 0.35 0"/>
<feBlend mode="normal" in2="BackgroundImageFix" result="effect1_dropShadow_72_5376"/>
<feBlend mode="normal" in="SourceGraphic" in2="effect1_dropShadow_72_5376" result="shape"/>
</filter>
<clipPath id="clip0_72_5376">
<rect width="24" height="24" fill="white" transform="translate(362 42)"/>
</clipPath>
</defs>
</svg>
