<svg width="48" height="48" viewBox="0 0 48 48" fill="none" xmlns="http://www.w3.org/2000/svg">
<g id="Layer_1">
<path id="Vector" d="M15.9075 25.1401L16.935 25.6726C16.9717 25.6943 16.9985 25.7292 17.01 25.7701C17.1809 26.4452 17.4487 27.0919 17.805 27.6901C17.8143 27.7088 17.8191 27.7293 17.8191 27.7501C17.8191 27.771 17.8143 27.7915 17.805 27.8101L17.4525 28.9126C17.4413 28.9347 17.4355 28.9591 17.4355 28.9839C17.4355 29.0086 17.4413 29.0331 17.4525 29.0551C17.8757 29.5983 18.3644 30.087 18.9075 30.5101C18.9296 30.5213 18.954 30.5272 18.9788 30.5272C19.0035 30.5272 19.028 30.5213 19.05 30.5101L20.1525 30.1576C20.1712 30.1484 20.1917 30.1436 20.2125 30.1436C20.2334 30.1436 20.2539 30.1484 20.2725 30.1576C20.8708 30.514 21.5175 30.7818 22.1925 30.9526C22.2335 30.9641 22.2684 30.991 22.29 31.0276L22.8225 32.0551C22.8326 32.0774 22.8483 32.0966 22.868 32.1111C22.8877 32.1255 22.9108 32.1347 22.935 32.1376C23.6164 32.2377 24.3087 32.2377 24.99 32.1376C25.0143 32.1347 25.0374 32.1255 25.0571 32.1111C25.0768 32.0966 25.0924 32.0774 25.1025 32.0551L25.635 31.0276C25.6567 30.991 25.6916 30.9641 25.7325 30.9526C26.4076 30.7818 27.0543 30.514 27.6525 30.1576C27.6712 30.1484 27.6917 30.1436 27.7125 30.1436C27.7334 30.1436 27.7539 30.1484 27.7725 30.1576L28.875 30.5101C28.8971 30.5213 28.9215 30.5272 28.9463 30.5272C28.971 30.5272 28.9955 30.5213 29.0175 30.5101C29.5607 30.087 30.0494 29.5983 30.4725 29.0551C30.4837 29.0331 30.4896 29.0086 30.4896 28.9839C30.4896 28.9591 30.4837 28.9347 30.4725 28.9126L30.12 27.8101C30.1108 27.7915 30.106 27.771 30.106 27.7501C30.106 27.7293 30.1108 27.7088 30.12 27.6901C30.4764 27.0919 30.7442 26.4452 30.915 25.7701C30.9265 25.7292 30.9534 25.6943 30.99 25.6726L32.0175 25.1401C32.0398 25.13 32.059 25.1144 32.0735 25.0947C32.0879 25.075 32.0971 25.0519 32.1 25.0276C32.2001 24.3463 32.2001 23.654 32.1 22.9726C32.0971 22.9484 32.0879 22.9253 32.0735 22.9056C32.059 22.8859 32.0398 22.8702 32.0175 22.8601L30.99 22.3276C30.9534 22.306 30.9265 22.2711 30.915 22.2301C30.7442 21.5551 30.4764 20.9084 30.12 20.3101C30.1108 20.2915 30.106 20.271 30.106 20.2501C30.106 20.2293 30.1108 20.2088 30.12 20.1901L30.4725 19.0876C30.4837 19.0656 30.4896 19.0411 30.4896 19.0164C30.4896 18.9916 30.4837 18.9672 30.4725 18.9451C30.0494 18.402 29.5607 17.9133 29.0175 17.4901C28.9955 17.4789 28.971 17.4731 28.9463 17.4731C28.9215 17.4731 28.8971 17.4789 28.875 17.4901L27.7725 17.8426C27.7539 17.8519 27.7334 17.8567 27.7125 17.8567C27.6917 17.8567 27.6712 17.8519 27.6525 17.8426C27.0543 17.4863 26.4076 17.2185 25.7325 17.0476C25.6916 17.0361 25.6567 17.0093 25.635 16.9726L25.1025 15.9451C25.0924 15.9229 25.0768 15.9036 25.0571 15.8892C25.0374 15.8747 25.0143 15.8656 24.99 15.8626C24.3087 15.7626 23.6164 15.7626 22.935 15.8626C22.9108 15.8656 22.8877 15.8747 22.868 15.8892C22.8483 15.9036 22.8326 15.9229 22.8225 15.9451L22.29 16.9726C22.2684 17.0093 22.2335 17.0361 22.1925 17.0476C21.5175 17.2185 20.8708 17.4863 20.2725 17.8426C20.2539 17.8519 20.2334 17.8567 20.2125 17.8567C20.1917 17.8567 20.1712 17.8519 20.1525 17.8426L19.05 17.4901C19.028 17.4789 19.0035 17.4731 18.9788 17.4731C18.954 17.4731 18.9296 17.4789 18.9075 17.4901C18.3644 17.9133 17.8757 18.402 17.4525 18.9451C17.4413 18.9672 17.4355 18.9916 17.4355 19.0164C17.4355 19.0411 17.4413 19.0656 17.4525 19.0876L17.805 20.1901C17.8143 20.2088 17.8191 20.2293 17.8191 20.2501C17.8191 20.271 17.8143 20.2915 17.805 20.3101C17.4487 20.9084 17.1809 21.5551 17.01 22.2301C16.9985 22.2711 16.9717 22.306 16.935 22.3276L15.9075 22.8601C15.8853 22.8702 15.866 22.8859 15.8516 22.9056C15.8371 22.9253 15.828 22.9484 15.825 22.9726C15.725 23.654 15.725 24.3463 15.825 25.0276C15.828 25.0519 15.8371 25.075 15.8516 25.0947C15.866 25.1144 15.8853 25.13 15.9075 25.1401ZM24 20.7901C24.6349 20.7901 25.2555 20.9784 25.7834 21.3311C26.3113 21.6838 26.7227 22.1852 26.9657 22.7717C27.2086 23.3583 27.2722 24.0037 27.1484 24.6264C27.0245 25.2491 26.7188 25.821 26.2698 26.2699C25.8209 26.7189 25.249 27.0246 24.6263 27.1485C24.0036 27.2723 23.3582 27.2087 22.7716 26.9658C22.1851 26.7228 21.6837 26.3114 21.331 25.7835C20.9783 25.2556 20.79 24.635 20.79 24.0001C20.79 23.1488 21.1282 22.3323 21.7302 21.7303C22.3322 21.1283 23.1487 20.7901 24 20.7901Z" fill="white"/>
<path id="Vector_2" d="M21.4256 33.0001C21.3306 32.9727 21.2311 32.9643 21.1328 32.9755C21.0345 32.9867 20.9394 33.0172 20.8529 33.0653C20.7665 33.1134 20.6904 33.1782 20.6291 33.2558C20.5678 33.3334 20.5224 33.4224 20.4956 33.5176L20.2031 34.5526C20.7004 34.6206 21.1853 34.7595 21.6431 34.9651L21.9431 33.9301C21.9706 33.8351 21.9789 33.7356 21.9677 33.6373C21.9565 33.539 21.926 33.4439 21.8779 33.3574C21.8298 33.271 21.7651 33.1949 21.6875 33.1336C21.6098 33.0723 21.5209 33.0269 21.4256 33.0001Z" fill="white"/>
<path id="Vector_3" d="M19.5 44.25C21.9853 44.25 24 42.2353 24 39.75C24 37.2647 21.9853 35.25 19.5 35.25C17.0147 35.25 15 37.2647 15 39.75C15 42.2353 17.0147 44.25 19.5 44.25Z" fill="white"/>
<path id="Vector_4" d="M14.4989 41.3398C14.3436 40.8548 14.2627 40.3491 14.2589 39.8398L11.0039 40.3873C11.1592 40.8723 11.2401 41.3781 11.2439 41.8873L14.4989 41.3398Z" fill="white"/>
<path id="Vector_5" d="M6 46.5C8.48528 46.5 10.5 44.4853 10.5 42C10.5 39.5147 8.48528 37.5 6 37.5C3.51472 37.5 1.5 39.5147 1.5 42C1.5 44.4853 3.51472 46.5 6 46.5Z" fill="white"/>
<path id="Vector_6" d="M14.4827 20.4976L13.4477 20.2051C13.3797 20.7023 13.2408 21.1873 13.0352 21.6451L14.0702 21.9451C14.1652 21.9725 14.2647 21.9809 14.363 21.9697C14.4613 21.9585 14.5564 21.928 14.6429 21.8799C14.7293 21.8318 14.8054 21.767 14.8667 21.6894C14.928 21.6118 14.9734 21.5228 15.0002 21.4276C15.0276 21.3325 15.036 21.233 15.0248 21.1347C15.0136 21.0364 14.9831 20.9413 14.9349 20.8549C14.8868 20.7684 14.8221 20.6924 14.7445 20.631C14.6669 20.5697 14.5779 20.5244 14.4827 20.4976Z" fill="white"/>
<path id="Vector_7" d="M8.25 24C10.7353 24 12.75 21.9853 12.75 19.5C12.75 17.0147 10.7353 15 8.25 15C5.76472 15 3.75 17.0147 3.75 19.5C3.75 21.9853 5.76472 24 8.25 24Z" fill="white"/>
<path id="Vector_8" d="M7.58984 11.0024C7.10484 11.1578 6.5991 11.2387 6.08984 11.2424L6.63734 14.4974C7.12235 14.3421 7.62809 14.2612 8.13734 14.2574L7.58984 11.0024Z" fill="white"/>
<path id="Vector_9" d="M6 10.5C8.48528 10.5 10.5 8.48528 10.5 6C10.5 3.51472 8.48528 1.5 6 1.5C3.51472 1.5 1.5 3.51472 1.5 6C1.5 8.48528 3.51472 10.5 6 10.5Z" fill="white"/>
<path id="Vector_10" d="M26.5743 15.0002C26.6693 15.0276 26.7688 15.036 26.8671 15.0248C26.9654 15.0136 27.0605 14.9831 27.147 14.9349C27.2334 14.8868 27.3095 14.8221 27.3708 14.7445C27.4321 14.6669 27.4775 14.5779 27.5043 14.4827L27.7968 13.4477C27.2995 13.3797 26.8146 13.2408 26.3568 13.0352L26.0568 14.0702C26.0293 14.1652 26.021 14.2647 26.0322 14.363C26.0433 14.4613 26.0739 14.5564 26.122 14.6429C26.1701 14.7293 26.2348 14.8054 26.3124 14.8667C26.3901 14.928 26.479 14.9734 26.5743 15.0002Z" fill="white"/>
<path id="Vector_11" d="M28.5 12.75C30.9853 12.75 33 10.7353 33 8.25C33 5.76472 30.9853 3.75 28.5 3.75C26.0147 3.75 24 5.76472 24 8.25C24 10.7353 26.0147 12.75 28.5 12.75Z" fill="white"/>
<path id="Vector_12" d="M36.7511 6.1123L33.4961 6.65981C33.6514 7.14481 33.7323 7.65055 33.7361 8.15981L36.9911 7.6123C36.8358 7.1273 36.7549 6.62156 36.7511 6.1123Z" fill="white"/>
<path id="Vector_13" d="M42 10.5C44.4853 10.5 46.5 8.48528 46.5 6C46.5 3.51472 44.4853 1.5 42 1.5C39.5147 1.5 37.5 3.51472 37.5 6C37.5 8.48528 39.5147 10.5 42 10.5Z" fill="white"/>
<path id="Vector_14" d="M34.9632 26.3548L33.9282 26.0548C33.8331 26.0274 33.7336 26.019 33.6353 26.0302C33.537 26.0414 33.4419 26.0719 33.3555 26.12C33.269 26.1681 33.193 26.2328 33.1316 26.3105C33.0703 26.3881 33.025 26.4771 32.9982 26.5723C32.9707 26.6674 32.9624 26.7669 32.9736 26.8652C32.9848 26.9635 33.0153 27.0586 33.0634 27.145C33.1115 27.2315 33.1762 27.3075 33.2538 27.3688C33.3315 27.4302 33.4204 27.4755 33.5157 27.5023L34.5507 27.7948C34.6186 27.2976 34.7576 26.8126 34.9632 26.3548Z" fill="white"/>
<path id="Vector_15" d="M39.75 33C42.2353 33 44.25 30.9853 44.25 28.5C44.25 26.0147 42.2353 24 39.75 24C37.2647 24 35.25 26.0147 35.25 28.5C35.25 30.9853 37.2647 33 39.75 33Z" fill="white"/>
<path id="Vector_16" d="M40.4108 36.9974C40.8958 36.8421 41.4015 36.7612 41.9108 36.7574L41.3633 33.5024C40.8783 33.6578 40.3725 33.7387 39.8633 33.7424L40.4108 36.9974Z" fill="white"/>
<path id="Vector_17" d="M42 46.5C44.4853 46.5 46.5 44.4853 46.5 42C46.5 39.5147 44.4853 37.5 42 37.5C39.5147 37.5 37.5 39.5147 37.5 42C37.5 44.4853 39.5147 46.5 42 46.5Z" fill="white"/>
</g>
</svg>
