<svg width="48" height="48" viewBox="0 0 48 48" fill="none" xmlns="http://www.w3.org/2000/svg">
<g id="Layer_1">
<g id="Group">
<path id="Vector" d="M16.8863 34.9155V41.4531C16.8863 41.7123 16.6751 41.9331 16.4063 41.9331H12.8159C12.5567 41.9331 12.3359 41.7123 12.3359 41.4531V34.9155C12.3359 34.6467 12.5567 34.4355 12.8159 34.4355H16.4063C16.6751 34.4355 16.8863 34.6467 16.8863 34.9155Z" fill="white"/>
<path id="Vector_2" d="M23.2045 32.4961V41.4529C23.2045 41.7121 22.9837 41.9329 22.7245 41.9329H19.1245C18.8653 41.9329 18.6445 41.7121 18.6445 41.4529V32.4961C18.6445 32.2273 18.8653 32.0161 19.1245 32.0161H22.7245C22.9837 32.0161 23.2045 32.2273 23.2045 32.4961Z" fill="white"/>
<path id="Vector_3" d="M24.5379 20.6499C24.8067 20.6499 25.0179 20.4387 25.0179 20.1699C25.0179 19.9011 24.8067 19.6899 24.5379 19.6899H19.0659C18.7971 19.6899 18.5859 19.9011 18.5859 20.1699C18.5859 20.4387 18.7971 20.6499 19.0659 20.6499H24.5379Z" fill="white"/>
<path id="Vector_4" d="M12.6362 20.6499H16.7162C16.985 20.6499 17.1962 20.4387 17.1962 20.1699C17.1962 19.9011 16.985 19.6899 16.7162 19.6899H12.6362C12.3674 19.6899 12.1562 19.9011 12.1562 20.1699C12.1562 20.4387 12.3674 20.6499 12.6362 20.6499Z" fill="white"/>
<path id="Vector_5" d="M28.4567 22.3682C28.4567 22.0994 28.2455 21.8882 27.9767 21.8882H22.9175C22.6487 21.8882 22.4375 22.0994 22.4375 22.3682C22.4375 22.637 22.6487 22.8482 22.9175 22.8482H27.9767C28.2455 22.8482 28.4567 22.637 28.4567 22.3682Z" fill="white"/>
<path id="Vector_6" d="M12.6363 22.8482H20.4891C20.7579 22.8482 20.9691 22.637 20.9691 22.3682C20.9691 22.0994 20.7579 21.8882 20.4891 21.8882H12.6363C12.3675 21.8882 12.1562 22.0994 12.1562 22.3682C12.1562 22.637 12.3675 22.8482 12.6363 22.8482Z" fill="white"/>
<path id="Vector_7" d="M24.6342 24.5664C24.6342 24.2976 24.423 24.0864 24.1542 24.0864H19.4214C19.1526 24.0864 18.9414 24.2976 18.9414 24.5664C18.9414 24.8352 19.1526 25.0464 19.4214 25.0464H24.1542C24.4134 25.0464 24.6342 24.8352 24.6342 24.5664Z" fill="white"/>
<path id="Vector_8" d="M12.6362 25.0464H17.0426C17.3114 25.0464 17.5226 24.8352 17.5226 24.5664C17.5226 24.2976 17.3114 24.0864 17.0426 24.0864H12.6362C12.3674 24.0864 12.1562 24.2976 12.1562 24.5664C12.1562 24.8352 12.3674 25.0464 12.6362 25.0464Z" fill="white"/>
<path id="Vector_9" d="M28.4545 26.7652C28.4545 26.4964 28.2433 26.2852 27.9745 26.2852H23.2417C22.9729 26.2852 22.7617 26.4964 22.7617 26.7652C22.7617 27.034 22.9729 27.2452 23.2417 27.2452H27.9745C28.2433 27.2452 28.4545 27.0244 28.4545 26.7652Z" fill="white"/>
<path id="Vector_10" d="M12.6362 27.2452H20.8347C21.1035 27.2452 21.3147 27.034 21.3147 26.7652C21.3147 26.4964 21.1035 26.2852 20.8347 26.2852H12.6362C12.3674 26.2852 12.1562 26.4964 12.1562 26.7652C12.1562 27.034 12.3674 27.2452 12.6362 27.2452Z" fill="white"/>
<path id="Vector_11" d="M17.8491 28.4834H12.6362C12.3674 28.4834 12.1562 28.6946 12.1562 28.9634C12.1562 29.2322 12.3674 29.4434 12.6362 29.4434H17.8491C18.1179 29.4434 18.3291 29.2322 18.3291 28.9634C18.3291 28.6946 18.1179 28.4834 17.8491 28.4834Z" fill="white"/>
<path id="Vector_12" d="M46.7529 36.3554L43.5945 29.3474C43.4889 29.117 43.2201 29.0018 42.9897 29.0882L42.3369 29.3282L41.8185 27.9074C42.1161 27.7538 42.4041 27.6002 42.6825 27.4082C46.5897 24.749 47.6169 19.4018 44.9577 15.485C43.9689 14.0258 42.5865 12.941 40.9737 12.317V2.72658C40.9737 2.46738 40.7625 2.24658 40.4937 2.24658H7.66174C7.39294 2.24658 7.18174 2.46738 7.18174 2.72658V5.35698H4.55134C4.28254 5.35698 4.07134 5.56818 4.07134 5.83698V7.94898H1.44094C1.17214 7.94898 0.960938 8.16018 0.960938 8.42898V39.581C0.960938 39.8498 1.17214 40.061 1.44094 40.061H4.07134V42.173C4.07134 42.4418 4.28254 42.653 4.55134 42.653H7.18174V45.2738C7.18174 45.5426 7.39294 45.7538 7.66174 45.7538H40.4937C40.7625 45.7538 40.9737 45.5426 40.9737 45.2738V39.0338C41.2809 39.6674 41.7705 40.1954 42.3945 40.5122C42.8457 40.7426 43.3449 40.8674 43.8441 40.8674C44.2185 40.8674 44.5833 40.8002 44.9385 40.6754C45.7737 40.3682 46.4457 39.725 46.7817 38.909C47.1273 38.093 47.1177 37.1618 46.7529 36.3554ZM7.18174 41.693H5.03134V6.31698H7.18174V41.693ZM40.0137 36.173V44.7938H8.14174V3.20658H40.0137V12.0098C39.8313 11.9618 39.6585 11.9138 39.4665 11.8754C37.2201 11.453 34.9353 11.9234 33.0441 13.2098C29.1273 15.869 28.1097 21.2162 30.7593 25.133C32.0457 27.0338 33.9945 28.3106 36.2505 28.7426C36.7881 28.8482 37.3353 28.8962 37.8729 28.8962C38.2761 28.8962 38.6793 28.8674 39.0825 28.8098L39.6393 30.317L38.9865 30.557C38.7465 30.6434 38.6217 30.893 38.6889 31.133L40.0521 35.981C40.0329 36.0386 40.0137 36.1058 40.0137 36.173ZM40.7721 24.6146C39.6201 25.3922 38.2377 25.6802 36.8841 25.421C35.5209 25.1618 34.3497 24.3842 33.5721 23.2418C31.9689 20.861 32.5833 17.6258 34.9545 16.013C35.8185 15.4178 36.8265 15.1106 37.8537 15.1106C38.1801 15.1106 38.5065 15.1394 38.8329 15.197C40.1961 15.4562 41.3673 16.2338 42.1449 17.3858C43.7577 19.757 43.1337 23.0018 40.7721 24.6146Z" fill="white"/>
<path id="Vector_13" d="M34.9072 9.75384C34.8016 10.3298 34.4752 10.829 33.9856 11.1458C33.6208 11.3954 33.208 11.5202 32.776 11.5202C32.6416 11.5202 32.4976 11.501 32.3536 11.4722C31.9312 11.3954 31.5664 11.1938 31.2784 10.9154L26.5552 14.093C26.68 14.4482 26.7184 14.8322 26.6416 15.2258C26.536 15.8018 26.2096 16.2914 25.72 16.6178C25.3648 16.8578 24.9424 16.9826 24.52 16.9826C24.376 16.9826 24.232 16.973 24.088 16.9442C22.9072 16.7042 22.1392 15.5618 22.3696 14.381C22.4176 14.1026 22.5328 13.8434 22.6768 13.613L21.1792 11.3762C20.9008 11.4914 20.6128 11.5778 20.3152 11.5778C20.1712 11.5778 20.0272 11.5682 19.8832 11.5394C19.4704 11.453 19.1152 11.261 18.8272 10.9922L16.36 12.6626C16.4464 12.9698 16.4752 13.3058 16.408 13.6514C16.2928 14.2274 15.9664 14.717 15.4864 15.0434C15.1216 15.2834 14.7088 15.4082 14.2768 15.4082C14.1328 15.4082 13.9984 15.3986 13.8544 15.3698C12.6736 15.1298 11.896 13.9874 12.1264 12.8066C12.2416 12.2306 12.568 11.741 13.0576 11.4146C13.5376 11.0882 14.1136 10.973 14.6896 11.0882C15.1792 11.1842 15.6016 11.453 15.9088 11.8082L18.28 10.205C18.1264 9.83064 18.0784 9.39864 18.1648 8.97624C18.2704 8.40024 18.5968 7.91064 19.0864 7.58424C19.5664 7.25784 20.1424 7.14264 20.7184 7.25784C21.8992 7.48824 22.6672 8.64024 22.4368 9.82104C22.3696 10.1954 22.1968 10.5218 21.9568 10.8098L23.3776 12.941C23.848 12.6626 24.3856 12.557 24.9232 12.6626C25.3744 12.749 25.7584 12.9698 26.056 13.277L30.7408 10.1186C30.5968 9.74424 30.5488 9.33144 30.6352 8.90904C30.7408 8.34264 31.0672 7.84344 31.5568 7.52664C32.0368 7.20024 32.6224 7.08504 33.1888 7.20024C34.3696 7.43064 35.1376 8.58264 34.9072 9.75384Z" fill="white"/>
<path id="Vector_14" d="M29.5113 36.1729V41.4529C29.5113 41.7121 29.2905 41.9329 29.0313 41.9329H25.4409C25.1721 41.9329 24.9609 41.7121 24.9609 41.4529V36.1729C24.9609 35.9041 25.1721 35.6929 25.4409 35.6929H29.0313C29.2905 35.6929 29.5113 35.9041 29.5113 36.1729Z" fill="white"/>
<path id="Vector_15" d="M35.8199 30.3267V41.4531C35.8199 41.7123 35.6087 41.9331 35.3399 41.9331H31.7495C31.4807 41.9331 31.2695 41.7123 31.2695 41.4531V30.3267C31.2695 30.0579 31.4807 29.8467 31.7495 29.8467H35.3399C35.6087 29.8467 35.8199 30.0579 35.8199 30.3267Z" fill="white"/>
</g>
</g>
</svg>
