<svg width="48" height="48" viewBox="0 0 48 48" fill="none" xmlns="http://www.w3.org/2000/svg">
<g id="Layer_1" clip-path="url(#clip0_393_7141)">
<path id="Vector" fill-rule="evenodd" clip-rule="evenodd" d="M39.4369 14.9207L34.292 17.8917L29.878 15.3458L30.5689 12.7734L28.6156 10.8202C28.7192 10.2808 28.7804 9.73329 28.8016 9.17792L29.1471 8.98123L39.4368 14.9207H39.4369ZM17.433 12.7734L19.5058 10.6979C19.4234 10.2275 19.3703 9.74651 19.3464 9.26286L18.8547 8.98123L8.56231 14.9207L13.7098 17.8917L18.1213 15.3458L17.433 12.7734ZM13.7098 25.1333V28.0087L23.4389 33.6266V25.4575L18.8547 28.1044L13.7098 25.1333ZM34.292 25.1333L29.1471 28.1044L24.5629 25.4575V33.6266L34.2919 28.0087V25.1333H34.292ZM8.56231 20.8627L18.8547 26.8049L23.9997 23.8339L13.7098 17.8917L8.56231 20.8627ZM39.4369 20.8627L34.292 17.8917L23.9996 23.8339L29.1471 26.8049L39.4368 20.8627H39.4369ZM19.9788 17.9236L21.5175 15.4203L21.2306 14.9898C20.606 14.0543 20.1303 13.0444 19.8115 11.9841L18.6874 13.1083L19.9789 17.9237L19.9788 17.9236ZM26.58 15.4894H26.5269L28.023 17.9236L29.3119 13.1082L28.2994 12.0957C27.9806 13.1134 27.5155 14.0888 26.9149 14.9897L26.58 15.4894ZM22.166 14.3652C20.4333 11.7689 19.9763 8.47629 20.9861 5.47329C22.9393 6.16686 25.2061 6.16686 27.1594 5.47329C28.1693 8.47629 27.7122 11.7663 25.9795 14.3652H22.166ZM22.2777 9.30007C22.2777 10.2887 23.0829 11.0939 24.0741 11.0939C25.0653 11.0939 25.8679 10.2887 25.8679 9.30007C25.8679 8.31148 25.0627 7.50626 24.0741 7.50626C23.0855 7.50626 22.2777 8.30886 22.2777 9.30007ZM26.7396 4.42629C26.1124 3.07629 25.1983 1.88839 24.0741 0.937012C22.9473 1.88839 22.0332 3.07629 21.406 4.42629C23.0536 5.01364 25.0918 5.01364 26.7395 4.42629H26.7396ZM25.7803 15.4894H22.3654L22.6019 16.8288H25.5437L25.7803 15.4894ZM23.5108 18.3966V21.0222C23.5108 21.3332 23.7632 21.5856 24.0742 21.5856C24.3824 21.5856 24.6349 21.3332 24.6349 21.0222V18.3966C24.6349 18.0883 24.3824 17.8359 24.0742 17.8359C23.7633 17.8359 23.5108 18.0884 23.5108 18.3966ZM22.0333 18.3966V19.6111C22.0333 19.9219 22.2857 20.1744 22.5967 20.1744C22.9049 20.1744 23.1574 19.9219 23.1574 19.6111V18.3966C23.1574 18.0883 22.9049 17.8359 22.5967 17.8359C22.2857 17.8359 22.0333 18.0884 22.0333 18.3966ZM25.5491 20.1744C25.8599 20.1744 26.1124 19.9219 26.1124 19.6111V18.3966C26.1124 18.0883 25.8599 17.8359 25.5491 17.8359C25.2408 17.8359 24.9883 18.0884 24.9883 18.3966V19.6111C24.9883 19.9219 25.2408 20.1744 25.5491 20.1744ZM11.8046 41.6416H21.7888C21.8366 40.6902 21.9854 39.8663 21.7702 38.8911C21.4327 37.3471 20.6248 35.7314 18.8603 33.8685C16.3888 31.2642 13.1626 30.5254 10.8719 28.1177C9.67869 26.8607 8.54394 27.5836 8.32606 28.8724C8.21441 29.5156 8.33403 30.3021 8.78844 31.0542C9.40766 32.0773 10.8692 33.2944 12.3494 34.2538C12.9022 34.6126 12.3176 35.5745 11.7409 35.1998C10.2713 34.2511 8.60778 32.9277 7.82647 31.6361C7.15681 30.5332 6.92562 29.1009 7.44912 27.8917C5.29653 25.2289 4.97497 23.1906 3.65159 19.7838C3.26891 18.7953 2.77466 17.966 2.10762 18.0351C-0.730563 18.3301 2.291 28.293 3.84566 32.1889C5.11597 35.3645 7.36419 36.696 9.91006 38.8725C11.1086 39.9009 11.5843 40.8019 11.7544 41.6416H11.8049H11.8046ZM21.8711 42.7657H11.8046C11.1853 42.7657 10.6778 43.2733 10.6778 43.8951V45.9334C10.6778 46.5553 11.1853 47.0629 11.8046 47.0629H21.8711C22.4903 47.0629 22.9978 46.5553 22.9978 45.9334V43.8951C22.9978 43.2733 22.4903 42.7657 21.8711 42.7657ZM45.892 18.0351C45.2277 17.966 44.7333 18.7952 44.348 19.7838C43.0273 23.1906 42.7057 25.2289 40.5531 27.8917C41.0766 29.1008 40.8428 30.5332 40.1758 31.6361C39.3918 32.9276 37.7282 34.2511 36.2586 35.1998C35.6846 35.5745 35.0999 34.6125 35.6527 34.2538C37.1302 33.2944 38.5945 32.0773 39.2137 31.0542C39.6681 30.3021 39.7877 29.5155 39.6761 28.8724C39.4555 27.5836 38.3234 26.8608 37.1276 28.1177C34.8395 30.5254 31.6133 31.2641 29.1418 33.8685C27.3773 35.7314 26.5694 37.3471 26.2319 38.8911C26.0167 39.8664 26.1655 40.6902 26.2134 41.6416H36.248C36.4181 40.8018 36.8911 39.9009 38.0923 38.8725C40.6355 36.696 42.8863 35.3646 44.1539 32.1889C45.7086 28.293 48.7302 18.3301 45.892 18.0351ZM36.1948 42.7656H26.131C25.5118 42.7656 25.0042 43.2732 25.0042 43.895V45.9334C25.0042 46.5552 25.5118 47.0628 26.131 47.0628H36.1948C36.8167 47.0628 37.3243 46.5552 37.3243 45.9334V43.895C37.3243 43.2732 36.8167 42.7656 36.1948 42.7656Z" fill="white"/>
</g>
<defs>
<clipPath id="clip0_393_7141">
<rect width="48" height="48" fill="white"/>
</clipPath>
</defs>
</svg>
