<svg xmlns="http://www.w3.org/2000/svg" width="25" height="25" viewBox="0 0 25 25" fill="none">
  <path d="M22.332 8.82867V8.90167C22.332 9.76167 22.332 10.1927 22.125 10.5447C21.918 10.8967 21.541 11.1057 20.789 11.5247L19.996 11.9647C20.542 10.1167 20.725 8.13067 20.792 6.43267L20.802 6.21167L20.804 6.15967C21.455 6.38567 21.821 6.55467 22.049 6.87067C22.332 7.26367 22.332 7.78567 22.332 8.82867ZM2.33203 8.82867V8.90167C2.33203 9.76167 2.33203 10.1927 2.53903 10.5447C2.74603 10.8967 3.12303 11.1057 3.87503 11.5247L4.66903 11.9647C4.12203 10.1167 3.93903 8.13067 3.87203 6.43267L3.86203 6.21167L3.86103 6.15967C3.20903 6.38567 2.84303 6.55467 2.61503 6.87067C2.33203 7.26367 2.33203 7.78667 2.33203 8.82867Z" fill="white"/>
  <path fill-rule="evenodd" clip-rule="evenodd" d="M16.7074 3.01373C15.2606 2.77673 13.7966 2.66066 12.3304 2.66673C10.5474 2.66673 9.07745 2.82373 7.95345 3.01373C6.81445 3.20573 6.24545 3.30173 5.76945 3.88773C5.29445 4.47373 5.31945 5.10673 5.36945 6.37273C5.54245 10.7207 6.48045 16.1527 11.5804 16.6327V20.1667H10.1504C9.91936 20.1669 9.69545 20.247 9.51679 20.3936C9.33812 20.5402 9.21574 20.7441 9.17045 20.9707L8.98045 21.9167H6.33045C6.13154 21.9167 5.94077 21.9957 5.80012 22.1364C5.65947 22.2771 5.58045 22.4678 5.58045 22.6667C5.58045 22.8656 5.65947 23.0564 5.80012 23.1971C5.94077 23.3377 6.13154 23.4167 6.33045 23.4167H18.3304C18.5294 23.4167 18.7201 23.3377 18.8608 23.1971C19.0014 23.0564 19.0804 22.8656 19.0804 22.6667C19.0804 22.4678 19.0014 22.2771 18.8608 22.1364C18.7201 21.9957 18.5294 21.9167 18.3304 21.9167H15.6804L15.4904 20.9707C15.4452 20.7441 15.3228 20.5402 15.1441 20.3936C14.9655 20.247 14.7415 20.1669 14.5104 20.1667H13.0804V16.6327C18.1804 16.1527 19.1194 10.7217 19.2914 6.37273C19.3414 5.10673 19.3674 4.47273 18.8914 3.88773C18.4155 3.30173 17.8464 3.20573 16.7074 3.01373Z" fill="white"/>
</svg>