<svg width="24" height="24" viewBox="0 0 24 24" fill="none" xmlns="http://www.w3.org/2000/svg">
<g clip-path="url(#clip0_178_1632)">
<path d="M9.00016 21.3333C9.92064 21.3333 10.6668 20.5871 10.6668 19.6667C10.6668 18.7462 9.92064 18 9.00016 18C8.07969 18 7.3335 18.7462 7.3335 19.6667C7.3335 20.5871 8.07969 21.3333 9.00016 21.3333Z" fill="white"/>
<path d="M17.6667 21.3333C18.5871 21.3333 19.3333 20.5871 19.3333 19.6667C19.3333 18.7462 18.5871 18 17.6667 18C16.7462 18 16 18.7462 16 19.6667C16 20.5871 16.7462 21.3333 17.6667 21.3333Z" fill="white"/>
<path d="M21.2198 8.82667C21.391 7.40774 21.3026 5.36562 21.2499 4.46114C21.2346 4.20021 21.0195 4 20.7581 4C19.4597 4 15.818 4 14.9998 4H6.13983L5.83983 3.04667C5.80688 2.94431 5.74965 2.85144 5.67303 2.77598C5.59641 2.70052 5.50268 2.64472 5.39983 2.61333L2.6665 1.77333C2.58245 1.74751 2.49414 1.73849 2.40661 1.74679C2.31908 1.75509 2.23404 1.78055 2.15635 1.82172C1.99944 1.90486 1.88199 2.04693 1.82983 2.21667C1.77767 2.3864 1.79508 2.56991 1.87822 2.72682C1.96136 2.88372 2.10342 3.00117 2.27316 3.05333L4.6665 3.78667L7.71983 13.4333L6.63316 14.3267L6.5465 14.4133C6.27776 14.7245 6.12551 15.1194 6.11578 15.5304C6.10605 15.9415 6.23945 16.3431 6.49316 16.6667C6.67487 16.8876 6.90577 17.063 7.16739 17.1788C7.42901 17.2945 7.71409 17.3475 7.99983 17.3333H19.1265C19.3033 17.3333 19.4729 17.2631 19.5979 17.1381C19.7229 17.013 19.7932 16.8435 19.7932 16.6667C19.7932 16.4899 19.7229 16.3203 19.5979 16.1953C19.4729 16.0702 19.3033 16 19.1265 16H7.89316C7.81639 15.9974 7.7416 15.975 7.676 15.935C7.61041 15.8951 7.55622 15.8389 7.51869 15.7718C7.48116 15.7048 7.46155 15.6292 7.46175 15.5524C7.46195 15.4756 7.48195 15.4002 7.51983 15.3333L9.1265 14H19.4132C19.5655 14.0044 19.7147 13.9566 19.836 13.8644C19.9573 13.7722 20.0433 13.6413 20.0798 13.4933C20.0798 13.4933 20.9951 10.6892 21.2198 8.82667Z" fill="white"/>
</g>
<defs>
<clipPath id="clip0_178_1632">
<rect width="24" height="24" fill="white"/>
</clipPath>
</defs>
</svg>
