<svg width="16" height="16" viewBox="0 0 16 16" fill="none" xmlns="http://www.w3.org/2000/svg">
<path d="M13.0198 4.27332C13.2125 4.45547 13.3249 4.70668 13.3324 4.97171C13.3399 5.23674 13.2419 5.49391 13.0598 5.68666L7.39313 11.6867C7.30129 11.7837 7.19092 11.8614 7.06856 11.9151C6.94619 11.9688 6.8143 11.9974 6.68068 11.9993C6.54707 12.0011 6.41443 11.9762 6.29061 11.926C6.1668 11.8757 6.05431 11.8011 5.95979 11.7067L2.9598 8.70666C2.78316 8.51709 2.68699 8.26636 2.69156 8.0073C2.69613 7.74823 2.80108 7.50105 2.9843 7.31783C3.16752 7.13461 3.4147 7.02966 3.67377 7.02509C3.93283 7.02052 4.18356 7.11668 4.37313 7.29332L6.64646 9.56532L11.6065 4.31332C11.7886 4.12065 12.0398 4.00821 12.3048 4.00071C12.5699 3.9932 12.827 4.09126 13.0198 4.27332Z" fill="white"/>
</svg>
