<svg width="19" height="16" viewBox="0 0 19 16" fill="none" xmlns="http://www.w3.org/2000/svg">
<path d="M8.094 3.25001H2.49454C2.86583 1.43472 4.47925 0.0833435 6.35788 0.0833435H8.54604L8.094 3.25001ZM9.7755 4.56576C9.92513 4.73834 10.1333 4.83334 10.3621 4.83334C10.7453 4.83334 11.0754 4.54676 11.13 4.16755L11.7135 0.0833435H10.1468L9.59421 3.94747C9.56175 4.17388 9.62587 4.39318 9.7755 4.56576ZM18.9161 3.25001C18.7815 2.59055 18.483 1.9683 18.0318 1.44897C17.2797 0.581302 16.1896 0.0833435 15.0409 0.0833435H13.3135L12.8606 3.25001H18.9161ZM18.9264 4.83334L17.8283 12.5181C17.5513 14.4553 15.8666 15.9167 13.9096 15.9167H4.60433C4.693 15.6681 4.75 15.4037 4.75 15.125C4.75 14.8123 4.68588 14.5154 4.57583 14.2415C5.58521 13.9676 6.33333 13.0532 6.33333 11.9583C6.33333 11.6456 6.26921 11.3488 6.15917 11.0748C7.16854 10.8009 7.91667 9.88655 7.91667 8.79168C7.91667 7.48226 6.85108 6.41668 5.54167 6.41668H1.995L2.23487 4.83334H8.14388C8.4455 5.76909 9.37967 6.42776 10.3621 6.41668C11.3731 6.41668 12.2613 5.76118 12.5875 4.83334H18.9272H18.9264ZM15.0417 12.75C15.0417 12.3122 14.6878 11.9583 14.25 11.9583H12.6667C12.2289 11.9583 11.875 12.3122 11.875 12.75C11.875 13.1878 12.2289 13.5417 12.6667 13.5417H14.25C14.6878 13.5417 15.0417 13.1878 15.0417 12.75ZM3.95833 11.1667H0.791667C0.353875 11.1667 0 11.5206 0 11.9583C0 12.3961 0.353875 12.75 0.791667 12.75H3.95833C4.39613 12.75 4.75 12.3961 4.75 11.9583C4.75 11.5206 4.39613 11.1667 3.95833 11.1667ZM2.375 14.3333H0.791667C0.353875 14.3333 0 14.6872 0 15.125C0 15.5628 0.353875 15.9167 0.791667 15.9167H2.375C2.81279 15.9167 3.16667 15.5628 3.16667 15.125C3.16667 14.6872 2.81279 14.3333 2.375 14.3333ZM0.791667 9.58334H5.54167C5.97946 9.58334 6.33333 9.22947 6.33333 8.79168C6.33333 8.35388 5.97946 8.00001 5.54167 8.00001H0.791667C0.353875 8.00001 0 8.35468 0 8.79168C0 9.22868 0.353875 9.58334 0.791667 9.58334Z" fill="white"/>
</svg>
