<svg width="25" height="25" viewBox="0 0 25 25" fill="none" xmlns="http://www.w3.org/2000/svg">
<g id="pepicons-pop:rewind-time" clip-path="url(#clip0_353_8342)">
<g id="Group">
<path id="Vector" fill-rule="evenodd" clip-rule="evenodd" d="M7.47883 7.13277C6.71363 7.8869 6.12879 8.80425 5.76805 9.81623C5.40732 10.8282 5.28 11.9087 5.39563 12.9768C5.42904 13.2934 5.3353 13.6104 5.13501 13.858C4.93472 14.1055 4.6443 14.2634 4.32763 14.2968C4.01096 14.3302 3.69399 14.2364 3.44644 14.0362C3.19889 13.8359 3.04104 13.5454 3.00763 13.2288C2.85436 11.802 3.02535 10.359 3.50783 9.00756C3.99032 7.65611 4.77183 6.4311 5.79403 5.42397C9.55723 1.71357 15.622 1.77597 19.3408 5.54637C23.0596 9.31677 23.038 15.384 19.276 19.0944C17.5346 20.8155 15.1961 21.7982 12.748 21.8376C11.8228 21.8542 10.9001 21.737 10.0084 21.4896C9.85304 21.4508 9.70698 21.3813 9.57885 21.2853C9.45073 21.1892 9.34314 21.0684 9.26242 20.9301C9.1817 20.7918 9.12948 20.6387 9.10885 20.4799C9.08821 20.321 9.09958 20.1597 9.14227 20.0053C9.18496 19.851 9.25812 19.7067 9.35744 19.5811C9.45675 19.4555 9.58021 19.351 9.72054 19.2738C9.86087 19.1966 10.0152 19.1483 10.1745 19.1317C10.3338 19.1151 10.4948 19.1306 10.648 19.1772C11.3175 19.3627 12.0103 19.4505 12.7048 19.4376C14.5369 19.4092 16.2872 18.674 17.59 17.3856C20.4016 14.6136 20.428 10.0668 17.632 7.23237C14.836 4.39797 10.2892 4.36077 7.47883 7.13277Z" fill="white"/>
<path id="Vector_2" fill-rule="evenodd" clip-rule="evenodd" d="M5.09414 14.2008C4.98935 14.3186 4.8624 14.4145 4.72053 14.4832C4.57867 14.5518 4.42466 14.5919 4.26732 14.601C4.10997 14.6102 3.95237 14.5882 3.80351 14.5364C3.65465 14.4847 3.51744 14.4041 3.39974 14.2992L1.33574 12.4632C1.098 12.2516 0.954068 11.9542 0.935614 11.6364C0.917161 11.3187 1.02569 11.0066 1.23734 10.7688C1.44898 10.5311 1.7464 10.3872 2.06416 10.3687C2.38192 10.3503 2.694 10.4588 2.93174 10.6704L4.99574 12.5064C5.11347 12.6112 5.20941 12.7382 5.27807 12.88C5.34673 13.0219 5.38678 13.1759 5.39592 13.3333C5.40505 13.4906 5.38311 13.6482 5.33133 13.7971C5.27955 13.9459 5.19895 14.0831 5.09414 14.2008Z" fill="white"/>
<path id="Vector_3" fill-rule="evenodd" clip-rule="evenodd" d="M3.23609 14.0867C3.33065 14.2128 3.4491 14.319 3.5847 14.3993C3.7203 14.4796 3.87039 14.5324 4.02639 14.5546C4.18239 14.5769 4.34125 14.5683 4.49391 14.5292C4.64657 14.49 4.79002 14.4213 4.91609 14.3267L7.31609 12.5267C7.5707 12.3357 7.73902 12.0515 7.78403 11.7364C7.82904 11.4213 7.74705 11.1013 7.55609 10.8467C7.36514 10.5921 7.08086 10.4238 6.7658 10.3788C6.45074 10.3338 6.1307 10.4157 5.87609 10.6067L3.47609 12.4067C3.35002 12.5013 3.24381 12.6197 3.16352 12.7553C3.08324 12.8909 3.03044 13.041 3.00815 13.197C2.98587 13.353 2.99453 13.5119 3.03364 13.6645C3.07275 13.8172 3.14154 13.9606 3.23609 14.0867ZM12.3321 7.3667C12.6504 7.3667 12.9556 7.49313 13.1806 7.71817C13.4057 7.94321 13.5321 8.24844 13.5321 8.5667V12.7667C13.5321 13.085 13.4057 13.3902 13.1806 13.6152C12.9556 13.8403 12.6504 13.9667 12.3321 13.9667C12.0138 13.9667 11.7086 13.8403 11.4836 13.6152C11.2585 13.3902 11.1321 13.085 11.1321 12.7667V8.5667C11.1321 8.24844 11.2585 7.94321 11.4836 7.71817C11.7086 7.49313 12.0138 7.3667 12.3321 7.3667Z" fill="white"/>
<path id="Vector_4" fill-rule="evenodd" clip-rule="evenodd" d="M17.1328 12.7667C17.1328 13.0849 17.0064 13.3901 16.7813 13.6152C16.5563 13.8402 16.2511 13.9667 15.9328 13.9667H12.3328C12.0146 13.9667 11.7093 13.8402 11.4843 13.6152C11.2592 13.3901 11.1328 13.0849 11.1328 12.7667C11.1328 12.4484 11.2592 12.1432 11.4843 11.9181C11.7093 11.6931 12.0146 11.5667 12.3328 11.5667H15.9328C16.2511 11.5667 16.5563 11.6931 16.7813 11.9181C17.0064 12.1432 17.1328 12.4484 17.1328 12.7667Z" fill="white"/>
</g>
</g>
<defs>
<clipPath id="clip0_353_8342">
<rect width="24" height="24" fill="white" transform="translate(0.332031 0.166748)"/>
</clipPath>
</defs>
</svg>
