<svg width="19" height="19" viewBox="0 0 19 19" fill="none" xmlns="http://www.w3.org/2000/svg">
<g id="Capa_1" clip-path="url(#clip0_677_8774)">
<g id="Group">
<g id="Group_2">
<path id="Vector" d="M13.4336 0.326172V3.37697H16.4473L13.4336 0.326172Z" fill="white"/>
</g>
</g>
<g id="Group_3">
<g id="Group_4">
<path id="Vector_2" d="M12.877 4.49023C12.5652 4.49023 12.3203 4.24528 12.3203 3.93359V0H2.7832C2.47145 0 2.22656 0.244885 2.22656 0.556641V4.49023H5.61832C6.52008 4.49023 7.37734 4.93551 7.88945 5.67031L8.63535 6.7168H12.877C14.4133 6.7168 15.6602 7.96367 15.6602 9.5V17.3301C15.6602 17.6418 15.905 17.8867 16.2168 17.8867C16.5286 17.8867 16.7734 17.6418 16.7734 17.3301V4.49023H12.877Z" fill="white"/>
</g>
</g>
<g id="Group_5">
<g id="Group_6">
<path id="Vector_3" d="M14.5469 17.3301V9.5C14.5469 8.57594 13.801 7.83008 12.877 7.83008H8.3459C8.16781 7.83008 8.00078 7.74098 7.88949 7.59625L6.98773 6.30488C6.67598 5.8707 6.16383 5.60352 5.61836 5.60352H1.66992C0.745861 5.60352 0 6.34938 0 7.27344V16.2168C0 17.7531 1.24687 19 2.7832 19H16.2168C15.2927 19 14.5469 18.2541 14.5469 17.3301ZM11.7637 13.3965H9.53711C9.22535 13.3965 8.98047 13.1515 8.98047 12.8398C8.98047 12.5281 9.22535 12.2832 9.53711 12.2832H11.7637C12.0754 12.2832 12.3203 12.5281 12.3203 12.8398C12.3203 13.1515 12.0754 13.3965 11.7637 13.3965ZM11.7637 11.1699H9.53711C9.22535 11.1699 8.98047 10.925 8.98047 10.6133C8.98047 10.3015 9.22535 10.0566 9.53711 10.0566H11.7637C12.0754 10.0566 12.3203 10.3015 12.3203 10.6133C12.3203 10.925 12.0754 11.1699 11.7637 11.1699Z" fill="white"/>
</g>
</g>
<g id="Group_7">
<g id="Group_8">
<path id="Vector_4" d="M18.4434 7.83008H17.8867V17.3301C17.8867 18.2541 17.1409 19 16.2168 19H17.8867C18.499 19 19 18.499 19 17.8867V8.38672C19 8.07496 18.7551 7.83008 18.4434 7.83008Z" fill="white"/>
</g>
</g>
</g>
<defs>
<clipPath id="clip0_677_8774">
<rect width="19" height="19" fill="white"/>
</clipPath>
</defs>
</svg>
