<svg xmlns="http://www.w3.org/2000/svg" width="16" height="17" viewBox="0 0 16 17" fill="none">
  <path fill-rule="evenodd" clip-rule="evenodd" d="M2.56977 4.80685C2.58177 5.41405 2.25137 6.23485 1.82177 6.66365C1.42314 7.06267 1.19922 7.60363 1.19922 8.16765C1.19922 8.73168 1.42314 9.27263 1.82177 9.67165C2.24577 10.0941 2.55777 10.8269 2.56977 11.4253C2.58097 11.9549 2.78817 12.4813 3.19217 12.8845C3.5649 13.2579 4.06352 13.479 4.59057 13.5045C5.22337 13.5365 6.05217 13.9045 6.50017 14.3525C6.89916 14.7508 7.43994 14.9746 8.00377 14.9746C8.5676 14.9746 9.10839 14.7508 9.50737 14.3525C9.95537 13.9045 10.7842 13.5365 11.417 13.5045C11.944 13.479 12.4426 13.2579 12.8154 12.8845C13.204 12.4964 13.4268 11.9727 13.437 11.4237C13.449 10.8269 13.757 10.0989 14.1802 9.67645C14.5803 9.27756 14.8056 8.73605 14.8065 8.17105C14.8074 7.60604 14.5839 7.06382 14.185 6.66365C13.7562 6.23565 13.425 5.41405 13.4378 4.80765C13.4438 4.52135 13.3918 4.23679 13.2848 3.97114C13.1778 3.7055 13.0181 3.46429 12.8154 3.26205C12.6052 3.05137 12.3531 2.88727 12.0754 2.78045C11.7976 2.67363 11.5005 2.62648 11.2034 2.64205C10.6322 2.67085 9.91137 2.39405 9.50737 1.98925C9.10836 1.59062 8.5674 1.3667 8.00337 1.3667C7.43935 1.3667 6.89839 1.59062 6.49937 1.98925C6.09617 2.39325 5.37457 2.67085 4.80337 2.64205C4.50635 2.62659 4.20939 2.6738 3.9318 2.78062C3.65422 2.88744 3.40222 3.05147 3.19217 3.26205C2.98952 3.46419 2.82989 3.70528 2.72292 3.97077C2.61595 4.23627 2.56386 4.52068 2.56977 4.80685ZM10.4322 5.46765C10.5241 5.51864 10.605 5.58723 10.6704 5.66951C10.7358 5.75179 10.7843 5.84614 10.8132 5.94718C10.8421 6.04822 10.8508 6.15396 10.8388 6.25836C10.8268 6.36277 10.7944 6.46379 10.7434 6.55565L8.52897 10.5413C8.47161 10.6498 8.39004 10.7437 8.29057 10.8157C8.14603 10.9202 7.97067 10.9735 7.79238 10.967C7.61409 10.9605 7.44309 10.8945 7.30657 10.7797L5.09937 9.01405C5.01732 8.94839 4.94901 8.86721 4.89833 8.77515C4.84766 8.68309 4.81561 8.58195 4.80402 8.4775C4.79243 8.37305 4.80153 8.26735 4.83079 8.16641C4.86005 8.06548 4.90891 7.9713 4.97457 7.88925C5.04023 7.8072 5.12141 7.73889 5.21347 7.68821C5.30554 7.63754 5.40668 7.60549 5.51113 7.5939C5.61557 7.58231 5.72128 7.59141 5.82221 7.62067C5.92314 7.64994 6.01732 7.69879 6.09937 7.76445L7.58177 8.95085L9.34417 5.77805C9.39523 5.68623 9.46387 5.60536 9.54618 5.54007C9.62849 5.47477 9.72285 5.42633 9.82388 5.39751C9.92492 5.36869 10.0306 5.36004 10.135 5.37208C10.2394 5.38412 10.3404 5.41659 10.4322 5.46765Z" fill="white"/>
</svg>