<svg width="48" height="48" viewBox="0 0 48 48" fill="none" xmlns="http://www.w3.org/2000/svg">
<path d="M40.3409 18.1703L23.9988 26.1249L7.65664 18.1703L12.5 15.8129C14.4084 20.2873 18.8507 23.4146 23.9988 23.4146C29.1468 23.4146 33.5891 20.2873 35.4976 15.8129L40.3409 18.1703ZM21.1601 34.5125C20.4545 35.4908 19.2998 36.0842 18.081 36.0842C17.5197 36.0842 16.9423 35.9398 16.4292 35.6993L5.8123 30.5352V37.8804C5.8123 38.9228 6.40578 39.8851 7.35193 40.3341L22.812 47.8396C22.9404 47.9038 23.0686 47.9518 23.1969 48V31.722L21.1601 34.5125ZM31.5684 35.6993C31.0553 35.9398 30.4779 36.0842 29.9166 36.0842C28.6977 36.0842 27.5431 35.4908 26.8374 34.5125L24.8006 31.722V48C24.945 47.9679 25.0733 47.9038 25.2176 47.8396L40.6456 40.3341C41.5918 39.8851 42.1853 38.9228 42.1853 37.8804V30.5352L31.5684 35.6993ZM19.8698 33.5666L23.9997 27.8985L6.26876 19.2727L2.60291 24.3038C1.79472 25.413 2.18589 26.9831 3.42 27.5835L17.1244 34.2505C18.0844 34.7176 19.2411 34.4294 19.8698 33.5666ZM30.8723 34.2505L44.5768 27.5835C45.8109 26.9831 46.202 25.413 45.3939 24.3038L41.728 19.2727L23.9971 27.8986L28.127 33.5666C28.7557 34.4294 29.9123 34.7176 30.8723 34.2505ZM26.7252 6.38286L24.56 8.53192C24.2553 8.85259 23.7422 8.85259 23.4375 8.53192L21.2724 6.38286C20.7752 5.88571 19.9573 5.88571 19.4602 6.38286C18.963 6.88002 18.963 7.68189 19.4602 8.17904L21.6253 10.3442C21.93 10.6489 21.93 11.162 21.6253 11.4667L19.4602 13.6318C18.963 14.129 18.963 14.9469 19.4602 15.444C19.9573 15.9412 20.7752 15.9412 21.2724 15.444L23.4375 13.2789C23.5818 13.1186 23.7903 13.0384 23.9988 13.0384C24.2073 13.0384 24.4158 13.1186 24.56 13.2789L26.7252 15.444C27.2063 15.9251 28.0402 15.9251 28.5374 15.444C29.0346 14.9469 29.0346 14.129 28.5374 13.6318L26.3723 11.4667C26.228 11.3224 26.1318 11.1139 26.1318 10.9054C26.1318 10.6969 26.228 10.4884 26.3723 10.3442L28.5374 8.17904C29.0346 7.68188 29.0346 6.88001 28.5374 6.38286C28.0402 5.88571 27.2063 5.88571 26.7252 6.38286ZM34.9042 10.9054C34.9042 16.9355 30.0289 21.8109 23.9988 21.8109C17.9687 21.8109 13.0934 16.9355 13.0934 10.9054C13.0934 4.87535 17.9687 0 23.9988 0C30.0289 0 34.9042 4.87535 34.9042 10.9054ZM28.0722 10.9054L29.66 9.31774C30.2213 8.75637 30.51 8.01871 30.51 7.28096C30.51 6.5432 30.2213 5.80554 29.66 5.24417C28.5694 4.15364 26.677 4.15364 25.5865 5.24417L23.9988 6.83196L22.4111 5.24417C21.2885 4.12163 19.4602 4.12163 18.3375 5.24417C17.215 6.36681 17.215 8.1951 18.3375 9.31774L19.9253 10.9054L18.3375 12.4931C17.215 13.6158 17.215 15.444 18.3375 16.5666C19.4602 17.6892 21.2884 17.6892 22.4111 16.5666L23.9988 14.9789L25.5865 16.5666C26.1318 17.1119 26.8535 17.4166 27.6233 17.4166C28.393 17.4166 29.1147 17.1119 29.66 16.5666C30.7826 15.444 30.7826 13.6158 29.66 12.4931L28.0722 10.9054Z" fill="white"/>
</svg>
