<svg width="19" height="20" viewBox="0 0 19 20" fill="none" xmlns="http://www.w3.org/2000/svg">
<g id="Capa_1" clip-path="url(#clip0_677_8789)">
<g id="Group">
<path id="Vector" d="M15.6787 4.17383V3.2832C15.6787 1.74854 14.4302 0.5 12.8955 0.5H6.06738C4.53272 0.5 3.28418 1.74854 3.28418 3.2832V4.17383H15.6787Z" fill="white"/>
<path id="Vector_2" d="M4.39746 12.3379V16.8652V17.8301V18.3867C4.39746 19.0015 4.89588 19.5 5.51074 19.5H13.4521C14.067 19.5 14.5654 19.0015 14.5654 18.3867V17.8301V16.8652V12.3379H4.39746ZM10.9658 17.0879H7.99707C7.68966 17.0879 7.44043 16.8387 7.44043 16.5312C7.44043 16.2238 7.68966 15.9746 7.99707 15.9746H10.9658C11.2732 15.9746 11.5225 16.2238 11.5225 16.5312C11.5225 16.8387 11.2732 17.0879 10.9658 17.0879ZM10.9658 14.7129H7.99707C7.68966 14.7129 7.44043 14.4637 7.44043 14.1562C7.44043 13.8488 7.68966 13.5996 7.99707 13.5996H10.9658C11.2732 13.5996 11.5225 13.8488 11.5225 14.1562C11.5225 14.4637 11.2732 14.7129 10.9658 14.7129Z" fill="white"/>
<path id="Vector_3" d="M16.1982 5.28711H2.80176C1.2671 5.28711 0.0185547 6.53565 0.0185547 8.07031V12.5234C0.0185547 14.0581 1.2671 15.3066 2.80176 15.3066H3.28418V12.3379H2.9502C2.64278 12.3379 2.39355 12.0887 2.39355 11.7812C2.39355 11.4738 2.64278 11.2246 2.9502 11.2246H3.84082H15.1221H16.0127C16.3201 11.2246 16.5693 11.4738 16.5693 11.7812C16.5693 12.0887 16.3201 12.3379 16.0127 12.3379H15.6787V15.3066H16.1982C17.7329 15.3066 18.9814 14.0581 18.9814 12.5234V8.07031C18.9814 6.53565 17.7329 5.28711 16.1982 5.28711ZM4.73145 8.77539H2.9502C2.64278 8.77539 2.39355 8.52616 2.39355 8.21875C2.39355 7.91134 2.64278 7.66211 2.9502 7.66211H4.73145C5.03886 7.66211 5.28809 7.91134 5.28809 8.21875C5.28809 8.52616 5.03886 8.77539 4.73145 8.77539Z" fill="white"/>
</g>
</g>
<defs>
<clipPath id="clip0_677_8789">
<rect width="19" height="19" fill="white" transform="translate(0 0.5)"/>
</clipPath>
</defs>
</svg>
