<svg width="96" height="96" viewBox="0 0 96 96" fill="none" xmlns="http://www.w3.org/2000/svg">
<path fill-rule="evenodd" clip-rule="evenodd" d="M15.4225 27.84C15.4945 31.4832 13.5121 36.408 10.9345 38.9808C8.54273 41.3749 7.19922 44.6206 7.19922 48.0048C7.19922 51.389 8.54273 54.6347 10.9345 57.0288C13.4785 59.5632 15.3505 63.96 15.4225 67.5504C15.4897 70.728 16.7329 73.8864 19.1569 76.3056C21.3933 78.5466 24.3851 79.873 27.5473 80.0256C31.3441 80.2176 36.3169 82.4256 39.0049 85.1136C41.3989 87.5039 44.6436 88.8465 48.0265 88.8465C51.4095 88.8465 54.6542 87.5039 57.0481 85.1136C59.7361 82.4256 64.7089 80.2176 68.5057 80.0256C71.668 79.873 74.6598 78.5466 76.8961 76.3056C79.2276 73.9773 80.5647 70.8352 80.6257 67.5408C80.6978 63.96 82.5457 59.592 85.0849 57.0576C87.4859 54.6643 88.8377 51.4152 88.8431 48.0252C88.8485 44.6351 87.507 41.3818 85.1137 38.9808C82.5409 36.4128 80.5537 31.4832 80.6305 27.8448C80.6667 26.1269 80.3544 24.4196 79.7126 22.8257C79.0708 21.2319 78.1127 19.7846 76.8961 18.5712C75.6353 17.3071 74.1225 16.3225 72.4561 15.6816C70.7897 15.0407 69.0071 14.7577 67.2241 14.8512C63.7969 15.024 59.4721 13.3632 57.0481 10.9344C54.654 8.54258 51.4083 7.19907 48.0241 7.19907C44.64 7.19907 41.3943 8.54258 39.0001 10.9344C36.5809 13.3584 32.2513 15.024 28.8241 14.8512C27.042 14.7584 25.2602 15.0417 23.5947 15.6826C21.9292 16.3235 20.4172 17.3077 19.1569 18.5712C17.941 19.784 16.9832 21.2305 16.3414 22.8235C15.6996 24.4165 15.387 26.1229 15.4225 27.84ZM62.5969 31.8048C63.1483 32.1107 63.634 32.5223 64.0262 33.0159C64.4184 33.5096 64.7096 34.0757 64.883 34.682C65.0564 35.2882 65.1086 35.9226 65.0368 36.549C64.9649 37.1755 64.7703 37.7816 64.4641 38.3328L51.1777 62.2464C50.8336 62.8977 50.3442 63.461 49.7473 63.8928C48.8801 64.5203 47.8279 64.8399 46.7582 64.8007C45.6884 64.7616 44.6624 64.366 43.8433 63.6768L30.6001 53.0832C30.1078 52.6892 29.698 52.2022 29.3939 51.6498C29.0898 51.0974 28.8976 50.4906 28.828 49.8639C28.7585 49.2372 28.8131 48.6029 28.9887 47.9974C29.1642 47.3918 29.4574 46.8267 29.8513 46.3344C30.2453 45.8421 30.7324 45.4322 31.2848 45.1281C31.8371 44.8241 32.444 44.6318 33.0707 44.5623C33.6973 44.4927 34.3316 44.5473 34.9372 44.7229C35.5428 44.8985 36.1078 45.1916 36.6001 45.5856L45.4945 52.704L56.0689 33.6672C56.3753 33.1163 56.7871 32.631 57.281 32.2393C57.7748 31.8475 58.341 31.5569 58.9472 31.3839C59.5534 31.211 60.1877 31.1591 60.8139 31.2314C61.4402 31.3036 62.046 31.4984 62.5969 31.8048Z" fill="#00FF80"/>
</svg>
