<svg width="24" height="24" viewBox="0 0 24 24" fill="none" xmlns="http://www.w3.org/2000/svg">
<path d="M20.65 7.04801C20.25 6.05001 17.53 3.91501 16.76 3.11601C16.0993 2.51185 15.2609 2.13756 14.37 2.04901C14.48 1.93901 8.37 2.04901 8.21 2.04901C7.54786 2.02054 6.88666 2.12399 6.26486 2.35334C5.64306 2.5827 5.07305 2.93339 4.588 3.38501C4.10399 3.83634 3.71439 4.37927 3.4418 4.9823C3.16921 5.58534 3.01904 6.2365 3 6.89801V17.175C3.0217 17.8359 3.17479 18.4859 3.45036 19.0869C3.72592 19.688 4.11844 20.2282 4.605 20.676C5.09178 21.125 5.66289 21.4727 6.28518 21.6992C6.90746 21.9256 7.56853 22.0262 8.23 21.995H15.79C16.4524 22.0235 17.1138 21.9199 17.7358 21.6904C18.3578 21.4609 18.9279 21.1099 19.413 20.658C19.8968 20.2066 20.2862 19.6636 20.5587 19.0606C20.8311 18.4576 20.9811 17.8065 21 17.145V8.59501C20.9934 8.06047 20.8742 7.53332 20.65 7.04801ZM15.81 14.032C14.81 15.09 13.66 13.154 13 12.635V17.245C13.0001 17.3763 12.9743 17.5063 12.9241 17.6275C12.8739 17.7488 12.8002 17.859 12.7073 17.9517C12.6144 18.0444 12.5041 18.1179 12.3827 18.1679C12.2613 18.2179 12.1313 18.2434 12 18.243C11.7351 18.243 11.4811 18.1379 11.2936 17.9508C11.1061 17.7637 11.0005 17.5099 11 17.245V12.635L9.6 14.032C8.7 14.96 7.26 13.523 8.19 12.625L10.85 9.97101C11.1567 9.66931 11.5698 9.50024 12 9.50024C12.4302 9.50024 12.8433 9.66931 13.15 9.97101L15.81 12.625C15.9033 12.7179 15.9773 12.8283 16.0278 12.9499C16.0783 13.0715 16.1043 13.2019 16.1043 13.3335C16.1043 13.4652 16.0783 13.5955 16.0278 13.7171C15.9773 13.8387 15.9033 13.9491 15.81 14.042V14.032ZM16.03 7.42701C14.36 7.42701 15.09 4.68301 14.94 3.72501C16.4843 4.78885 17.8974 6.03146 19.15 7.42701H16.03Z" fill="white"/>
</svg>
