<svg width="28" height="28" viewBox="0 0 28 28" fill="none" xmlns="http://www.w3.org/2000/svg">
<g id="Frame" clip-path="url(#clip0_564_4197)">
<path id="Vector" d="M13.7988 13.4877C15.6517 13.4877 17.2563 12.8231 18.5673 11.5119C19.8783 10.2009 20.5428 8.5968 20.5428 6.74363C20.5428 4.89109 19.8783 3.28679 18.567 1.97536C17.2558 0.664579 15.6515 0 13.7988 0C11.9456 0 10.3415 0.664579 9.03049 1.97558C7.71948 3.28658 7.05469 4.89088 7.05469 6.74363C7.05469 8.5968 7.71948 10.2011 9.0307 11.5121C10.3419 12.8229 11.9462 13.4877 13.7988 13.4877Z" fill="white"/>
<path id="Vector_2" d="M25.6008 21.5305C25.563 20.985 25.4865 20.3898 25.3739 19.7613C25.2603 19.1282 25.114 18.5296 24.9388 17.9825C24.7578 17.417 24.5117 16.8586 24.2076 16.3235C23.8918 15.7681 23.521 15.2844 23.1048 14.8865C22.6697 14.4701 22.1369 14.1354 21.5208 13.8912C20.9069 13.6483 20.2265 13.5253 19.4987 13.5253C19.2128 13.5253 18.9364 13.6425 18.4026 13.9901C18.074 14.2044 17.6897 14.4522 17.2607 14.7263C16.894 14.96 16.3971 15.1789 15.7833 15.3772C15.1845 15.5709 14.5766 15.6692 13.9765 15.6692C13.3764 15.6692 12.7687 15.5709 12.1693 15.3772C11.5562 15.1791 11.0593 14.9602 10.6929 14.7265C10.268 14.455 9.88348 14.2072 9.55002 13.9899C9.01682 13.6423 8.74017 13.5251 8.45435 13.5251C7.72632 13.5251 7.04614 13.6483 6.4324 13.8914C5.81674 14.1352 5.28375 14.4699 4.84818 14.8867C4.43225 15.2849 4.06119 15.7683 3.74588 16.3235C3.44189 16.8586 3.1958 17.4168 3.01465 17.9827C2.83969 18.5298 2.69336 19.1282 2.57971 19.7613C2.46713 20.389 2.39066 20.9843 2.35284 21.5312C2.31567 22.067 2.29688 22.623 2.29688 23.1846C2.29688 24.6462 2.76151 25.8295 3.67773 26.7021C4.58264 27.5632 5.78 28.0001 7.23605 28.0001H20.7182C22.1743 28.0001 23.3712 27.5635 24.2763 26.7021C25.1928 25.8301 25.6574 24.6467 25.6574 23.1844C25.6572 22.6202 25.6382 22.0637 25.6008 21.5305Z" fill="white"/>
</g>
<defs>
<clipPath id="clip0_564_4197">
<rect width="28" height="28" fill="white"/>
</clipPath>
</defs>
</svg>
