<svg width="49" height="48" viewBox="0 0 49 48" fill="none" xmlns="http://www.w3.org/2000/svg">
<g id="Layer_1" clip-path="url(#clip0_2010_2723)">
<path id="Vector" fill-rule="evenodd" clip-rule="evenodd" d="M25.2963 36.8019V40.0312C25.2961 40.8307 24.9784 41.5974 24.4131 42.1628C23.8479 42.7282 23.0812 43.046 22.2817 43.0464H15.6963C15.5905 43.0476 15.4856 43.0277 15.3875 42.988C15.2895 42.9483 15.2003 42.8896 15.1251 42.8152C15.0499 42.7408 14.9902 42.6522 14.9494 42.5546C14.9087 42.457 14.8877 42.3523 14.8877 42.2465C14.8877 42.1407 14.9087 42.036 14.9494 41.9384C14.9902 41.8407 15.0499 41.7522 15.1251 41.6778C15.2003 41.6034 15.2895 41.5446 15.3875 41.505C15.4856 41.4653 15.5905 41.4454 15.6963 41.4466H22.2823C22.6578 41.4466 23.0179 41.2974 23.2833 41.0319C23.5488 40.7665 23.698 40.4064 23.698 40.0309V36.8019C23.7003 36.5913 23.7855 36.3902 23.9352 36.2421C24.0849 36.094 24.287 36.0109 24.4976 36.0109C24.7082 36.0109 24.9103 36.094 25.06 36.2421C25.2097 36.3902 25.295 36.5913 25.2973 36.8019H25.2963ZM43.2526 31.1625C43.4643 31.1619 43.667 31.0773 43.8164 30.9274C43.9658 30.7775 44.0496 30.5744 44.0495 30.3628V25.883C44.0485 25.0837 43.7306 24.3173 43.1655 23.752C42.6004 23.1866 41.8341 22.8684 41.0348 22.867H37.063C36.8523 22.8693 36.651 22.9546 36.5028 23.1044C36.3546 23.2542 36.2715 23.4564 36.2715 23.6671C36.2715 23.8778 36.3546 24.08 36.5028 24.2298C36.651 24.3796 36.8523 24.4649 37.063 24.4672H41.0353C41.4104 24.4681 41.77 24.6175 42.0353 24.8828C42.3006 25.1481 42.45 25.5077 42.4509 25.8829V30.3629C42.451 30.4681 42.4718 30.5722 42.5121 30.6694C42.5525 30.7665 42.6116 30.8547 42.6861 30.929C42.7606 31.0033 42.849 31.0621 42.9462 31.1022C43.0435 31.1423 43.1477 31.1628 43.2529 31.1626L43.2526 31.1625ZM24.4994 11.9029C24.6043 11.9029 24.7082 11.8821 24.805 11.8419C24.9019 11.8017 24.9899 11.7428 25.0639 11.6685C25.1379 11.5942 25.1966 11.506 25.2365 11.409C25.2763 11.312 25.2967 11.208 25.2963 11.1032V7.30395C25.2975 6.92808 25.4476 6.568 25.7138 6.30265C25.98 6.03729 26.3406 5.88829 26.7164 5.88832H32.5852C32.7974 5.88832 33.0009 5.80402 33.151 5.65396C33.301 5.5039 33.3853 5.30038 33.3853 5.08816C33.3853 4.87595 33.301 4.67243 33.151 4.52237C33.0009 4.37231 32.7974 4.28801 32.5852 4.28801H26.7164C25.9163 4.2884 25.1491 4.6062 24.583 5.17165C24.0169 5.7371 23.6983 6.50403 23.697 7.30413V11.1034C23.6974 11.3157 23.7821 11.5193 23.9325 11.6692C24.0829 11.8192 24.2867 11.9033 24.4991 11.903L24.4994 11.9029ZM5.83588 16.9131C5.73065 16.9129 5.62641 16.9334 5.52912 16.9736C5.43184 17.0137 5.34342 17.0726 5.26892 17.1469C5.19443 17.2212 5.13532 17.3095 5.09498 17.4067C5.05464 17.5039 5.03387 17.6081 5.03384 17.7133V21.4512C5.03484 22.2505 5.35272 23.0169 5.91782 23.5823C6.48291 24.1476 7.24912 24.4659 8.04847 24.4672H11.936C12.1467 24.4649 12.348 24.3796 12.4962 24.2298C12.6444 24.08 12.7275 23.8778 12.7275 23.6671C12.7275 23.4564 12.6444 23.2542 12.4962 23.1044C12.348 22.9546 12.1467 22.8693 11.936 22.867H8.04847C7.67325 22.8663 7.31361 22.7169 7.04829 22.4516C6.78297 22.1862 6.63359 21.8266 6.63284 21.4514V17.7133C6.63307 17.5016 6.54929 17.2984 6.39989 17.1484C6.25049 16.9984 6.04759 16.9138 5.83588 16.9131ZM38.3981 3.04001L43.0498 5.72398L47.6968 3.04001L43.0498 0.355103L38.3981 3.04001ZM37.6012 9.79404V4.42498L42.2483 7.11035V12.4792L37.6007 9.79404H37.6012ZM48.4993 9.79404L43.8476 12.4789V7.11007L48.4989 4.42498V9.79404H48.4993ZM38.3981 38.2059L43.0498 40.8899L47.6968 38.2059L43.0498 35.5211L38.3981 38.2059ZM37.6012 44.9609V39.5911L42.2483 42.276V47.6448L37.6012 44.9609ZM48.4993 44.9609L43.8476 47.6448V42.276L48.4993 39.5911V44.9609ZM1.29734 38.2059L5.94903 40.8899L10.6008 38.2059L5.94903 35.5211L1.29734 38.2059ZM0.500469 44.9609V39.5911L5.14747 42.276V47.6448L0.5 44.9609H0.500469ZM11.3986 44.9609L6.75116 47.6448V42.276L11.3982 39.5911V44.9609H11.3986ZM1.29734 3.04001L5.94903 5.72398L10.6008 3.04001L5.94903 0.355103L1.29734 3.04001ZM0.5 9.79404V4.42498L5.147 7.11007V12.4789L0.5 9.79404ZM11.3982 9.79404L6.75116 12.4789V7.11007L11.3982 4.42498V9.79404ZM32.9018 23.861L31.8733 23.4652C31.7474 23.4162 31.636 23.3362 31.5493 23.2324C31.4627 23.1287 31.4038 23.0048 31.378 22.8722C31.1965 21.9634 30.8374 21.0994 30.3213 20.3298C30.2463 20.2174 30.2009 20.0879 30.1894 19.9532C30.1779 19.8186 30.2007 19.6832 30.2557 19.5598L30.7039 18.5511L30.1802 18.027L29.1706 18.4752C29.0473 18.5302 28.9121 18.553 28.7776 18.5413C28.6431 18.5296 28.5138 18.4838 28.4019 18.4083C27.6331 17.8908 26.7685 17.5327 25.859 17.3552C25.726 17.3289 25.6018 17.2694 25.4978 17.1824C25.3939 17.0953 25.3137 16.9833 25.2645 16.857L24.8682 15.8281H24.1323L23.7307 16.857C23.6832 16.9835 23.604 17.0957 23.5007 17.1829C23.3975 17.2702 23.2736 17.3295 23.1409 17.3552C22.2314 17.5327 21.3668 17.8908 20.598 18.4083C20.4861 18.4838 20.3568 18.5296 20.2223 18.5413C20.0878 18.553 19.9526 18.5302 19.8293 18.4752L18.8197 18.027L18.296 18.5511L18.7442 19.5598C18.7992 19.6835 18.822 19.819 18.8105 19.9539C18.799 20.0888 18.7536 20.2185 18.6786 20.3312C18.1586 21.0981 17.7992 21.9623 17.6218 22.8718C17.5961 23.0044 17.5371 23.1284 17.4505 23.2321C17.3639 23.3358 17.2524 23.4159 17.1265 23.4649L16.098 23.8607V24.6013L17.1265 24.9971C17.2524 25.046 17.3639 25.1261 17.4506 25.2298C17.5372 25.3335 17.5961 25.4574 17.6218 25.5901C17.799 26.4998 18.1581 27.3644 18.6776 28.132C18.7527 28.2445 18.798 28.3742 18.8095 28.509C18.821 28.6438 18.7982 28.7793 18.7432 28.9029L18.295 29.9111L18.8187 30.4353L19.8283 29.9871C19.9515 29.9321 20.0868 29.9093 20.2213 29.9211C20.3558 29.9328 20.4851 29.9785 20.597 30.0541C21.3659 30.5711 22.2305 30.9292 23.1399 31.1071C23.2725 31.1327 23.3964 31.1919 23.4996 31.2791C23.6029 31.3662 23.6821 31.4783 23.7297 31.6048L24.1306 32.6338H24.8666L25.2628 31.6048C25.3122 31.4787 25.3926 31.3671 25.4965 31.2803C25.6004 31.1934 25.7245 31.1342 25.8573 31.1079C26.7666 30.9293 27.6311 30.571 28.4002 30.054C28.5121 29.9785 28.6414 29.9327 28.7759 29.921C28.9104 29.9093 29.0457 29.932 29.1689 29.987L30.1785 30.4352L30.7022 29.911L30.254 28.9019C30.1991 28.7783 30.1763 28.6428 30.1877 28.508C30.1992 28.3732 30.2446 28.2435 30.3196 28.131C30.8361 27.3627 31.1938 26.4989 31.3717 25.5904C31.3982 25.4575 31.458 25.3335 31.5455 25.2299C31.6329 25.1264 31.7452 25.0467 31.8718 24.9983L32.9002 24.6016V23.8609L32.9018 23.861ZM29.623 24.2309C29.6227 25.2442 29.3221 26.2346 28.759 27.0771C28.1958 27.9195 27.3956 28.576 26.4594 28.9636C25.5231 29.3512 24.493 29.4525 23.4992 29.2547C22.5054 29.0569 21.5926 28.5688 20.8762 27.8522C20.1597 27.1357 19.6719 26.2227 19.4743 25.2289C19.2767 24.2351 19.3782 23.2049 19.766 22.2688C20.1538 21.3327 20.8105 20.5326 21.6531 19.9696C22.4956 19.4067 23.4861 19.1062 24.4994 19.1062C25.858 19.1078 27.1605 19.6483 28.1211 20.6091C29.0816 21.5699 29.6218 22.8726 29.623 24.2312V24.2309ZM28.0237 24.2309C28.0236 24.9279 27.8169 25.6092 27.4296 26.1887C27.0423 26.7683 26.4918 27.2199 25.8478 27.4866C25.2039 27.7533 24.4953 27.823 23.8117 27.687C23.128 27.551 22.5001 27.2153 22.0073 26.7224C21.5144 26.2295 21.1788 25.6015 21.0429 24.9179C20.9069 24.2343 20.9767 23.5257 21.2435 22.8817C21.5102 22.2378 21.962 21.6874 22.5415 21.3002C23.1211 20.9129 23.8024 20.7063 24.4994 20.7063C25.4339 20.7073 26.3298 21.079 26.9905 21.7397C27.6512 22.4005 28.0228 23.2964 28.0237 24.2309Z" fill="white"/>
</g>
<defs>
<clipPath id="clip0_2010_2723">
<rect width="48" height="48" fill="white" transform="translate(0.5)"/>
</clipPath>
</defs>
</svg>
