<svg width="49" height="48" viewBox="0 0 49 48" fill="none" xmlns="http://www.w3.org/2000/svg">
<g id="glipy">
<path id="Vector" d="M9.96875 33.1725V31.65C9.96867 31.5476 9.9888 31.4461 10.028 31.3514C10.0671 31.2568 10.1246 31.1707 10.197 31.0983C10.2695 31.0259 10.3555 30.9684 10.4502 30.9292C10.5448 30.8901 10.6463 30.8699 10.7487 30.87H23.7537V33.1725C23.7537 33.3714 23.8328 33.5622 23.9734 33.7028C24.1141 33.8435 24.3048 33.9225 24.5037 33.9225C24.7027 33.9225 24.8934 33.8435 25.0341 33.7028C25.1747 33.5622 25.2537 33.3714 25.2537 33.1725V30.87H38.2587C38.3612 30.8699 38.4627 30.8901 38.5573 30.9292C38.652 30.9684 38.738 31.0259 38.8105 31.0983C38.8829 31.1707 38.9404 31.2568 38.9795 31.3514C39.0187 31.4461 39.0388 31.5476 39.0387 31.65V33.1724C39.0421 33.3691 39.1227 33.5566 39.2629 33.6944C39.4032 33.8323 39.592 33.9096 39.7887 33.9096C39.9854 33.9096 40.1742 33.8323 40.3145 33.6945C40.4548 33.5566 40.5353 33.3692 40.5387 33.1725V31.65C40.5378 31.0456 40.2972 30.4663 39.8699 30.0389C39.4425 29.6115 38.8631 29.371 38.2587 29.37H25.2537V27.075C25.2537 26.8761 25.1747 26.6853 25.0341 26.5447C24.8934 26.404 24.7027 26.325 24.5037 26.325C24.3048 26.325 24.1141 26.404 23.9734 26.5447C23.8328 26.6853 23.7537 26.8761 23.7537 27.075V29.37H10.7487C10.1444 29.371 9.56501 29.6115 9.13764 30.0389C8.71027 30.4663 8.46974 31.0456 8.46875 31.65V33.1724C8.47247 33.3689 8.55312 33.556 8.69336 33.6937C8.8336 33.8313 9.02223 33.9084 9.21872 33.9084C9.4152 33.9084 9.60384 33.8313 9.7441 33.6937C9.88435 33.5561 9.96501 33.369 9.96875 33.1725Z" fill="white"/>
<path id="Vector_2" d="M13.355 36.87L9.5075 36.8475C8.93525 36.344 8.09718 35.1261 7.22 35.2125H5.075C4.86816 35.2125 4.66334 35.2532 4.47224 35.3323C4.28114 35.4115 4.10751 35.5275 3.96125 35.6737C3.81499 35.82 3.69898 35.9936 3.61984 36.1847C3.54069 36.3758 3.49997 36.5807 3.5 36.7875V43.41C3.49966 43.8285 3.66525 44.2301 3.96048 44.5267C4.25571 44.8234 4.65649 44.9908 5.075 44.9925H13.355C13.7743 44.9911 14.176 44.824 14.4725 44.5275C14.769 44.231 14.9361 43.8293 14.9375 43.41V38.445C14.9358 38.0265 14.7684 37.6257 14.4717 37.3305C14.1751 37.0352 13.7735 36.8697 13.355 36.87Z" fill="white"/>
<path id="Vector_3" d="M43.925 36.87L40.07 36.8475C39.4977 36.344 38.6597 35.1261 37.7825 35.2125H35.645C35.2265 35.2122 34.8249 35.3777 34.5283 35.673C34.2316 35.9682 34.0641 36.369 34.0625 36.7875V43.41C34.0639 43.8293 34.231 44.231 34.5275 44.5275C34.824 44.824 35.2257 44.9911 35.645 44.9925H43.925C44.3435 44.9908 44.7443 44.8234 45.0395 44.5267C45.3348 44.2301 45.5003 43.8285 45.5 43.41V38.445C45.5 38.2382 45.4593 38.0333 45.3802 37.8422C45.301 37.6511 45.185 37.4775 45.0387 37.3312C44.8925 37.185 44.7189 37.069 44.5278 36.9898C44.3367 36.9107 44.1318 36.87 43.925 36.87Z" fill="white"/>
<path id="Vector_4" d="M28.6363 36.87L24.7813 36.8475C24.2083 36.3472 23.3786 35.1271 22.5013 35.2125H20.3563C20.1494 35.2125 19.9446 35.2532 19.7535 35.3324C19.5624 35.4115 19.3888 35.5275 19.2425 35.6738C19.0962 35.82 18.9802 35.9937 18.9011 36.1848C18.8219 36.3759 18.7812 36.5807 18.7813 36.7875V43.41C18.7809 43.8285 18.9465 44.2301 19.2417 44.5267C19.537 44.8234 19.9377 44.9909 20.3563 44.9925H28.6363C29.0548 44.9909 29.4555 44.8234 29.7508 44.5267C30.046 44.2301 30.2116 43.8285 30.2113 43.41V38.445C30.2113 38.2382 30.1706 38.0334 30.0914 37.8423C30.0123 37.6512 29.8963 37.4775 29.75 37.3313C29.6037 37.185 29.4301 37.069 29.239 36.9899C29.0479 36.9107 28.8431 36.87 28.6363 36.87Z" fill="white"/>
<path id="Vector_5" d="M18.8903 4.52252H12.8978C12.2973 4.52326 11.7216 4.76214 11.297 5.18674C10.8724 5.61135 10.6336 6.18703 10.6328 6.78752V12.285L11.1053 11.8425L18.8903 4.52252Z" fill="white"/>
<path id="Vector_6" d="M21.1959 13.9275C21.4938 13.9044 21.7706 13.7646 21.9658 13.5384C22.1611 13.3123 22.2591 13.0181 22.2384 12.72V3.435C19.7592 5.77066 13.6226 11.5309 11.0859 13.9275H21.1959Z" fill="white"/>
<path id="Vector_7" d="M12.8978 24.69H36.1028C36.4003 24.6903 36.695 24.6319 36.9699 24.5181C37.2448 24.4044 37.4946 24.2376 37.705 24.0272C37.9154 23.8168 38.0822 23.567 38.1959 23.2921C38.3097 23.0172 38.3681 22.7225 38.3678 22.425V5.27251C38.3671 4.67202 38.1282 4.09633 37.7036 3.67172C37.279 3.24711 36.7033 3.00824 36.1028 3.00751H23.7353V12.72C23.7557 13.4158 23.4997 14.0914 23.0232 14.5988C22.5467 15.1062 21.8885 15.4042 21.1928 15.4275H10.6328V22.425C10.6325 22.7225 10.6909 23.0172 10.8047 23.2921C10.9184 23.567 11.0852 23.8168 11.2956 24.0272C11.506 24.2376 11.7558 24.4044 12.0307 24.5181C12.3056 24.6319 12.6003 24.6903 12.8978 24.69Z" fill="white"/>
</g>
</svg>
