<svg width="49" height="48" viewBox="0 0 49 48" fill="none" xmlns="http://www.w3.org/2000/svg">
<g id="Layer_1">
<path id="Vector" d="M3.5 42.1807C3.5 43.3365 4.4405 44.277 5.59625 44.277H43.4038C44.5595 44.277 45.5 43.3365 45.5 42.1807V17.6955H3.5V42.1807ZM11.5805 28.899C11.5805 27.612 12.6275 26.565 13.9138 26.565H15.4858C15.131 26.0332 14.9225 25.3957 14.9225 24.7102C14.9225 22.8607 16.4277 21.3555 18.2772 21.3555C19.1067 21.3555 19.8575 21.6697 20.4432 22.17C21.0785 20.589 22.625 19.4685 24.431 19.4685C26.801 19.4685 28.7292 21.3967 28.7292 23.7667C28.7292 24.8355 28.3348 25.812 27.6868 26.565H28.7615C29.9285 26.565 30.8893 27.429 31.0603 28.5487L36.2383 24.9195C36.467 24.7597 36.767 24.7387 37.0145 24.8685C37.2628 24.9975 37.4187 25.254 37.4187 25.5337V41.3692C37.4187 41.649 37.2628 41.9055 37.0145 42.0345C36.9058 42.0915 36.7865 42.1192 36.6687 42.1192C36.5172 42.1192 36.3673 42.0735 36.2383 41.9835L31.0603 38.355C30.89 39.4755 29.9292 40.3387 28.7615 40.3387H13.913C12.626 40.3387 11.5797 39.2917 11.5797 38.0055V28.899H11.5805Z" fill="white"/>
<path id="Vector_2" d="M13.9114 38.8388H28.7599C29.2196 38.8388 29.5939 38.4645 29.5939 38.0055V28.899C29.5939 28.4393 29.2196 28.065 28.7599 28.065H13.9114C13.4516 28.065 13.0781 28.4393 13.0781 28.899V38.0055C13.0781 38.4653 13.4524 38.8388 13.9114 38.8388ZM13.6496 30.3315C13.6496 29.9175 13.9856 29.5815 14.3996 29.5815H23.1431C23.5571 29.5815 23.8931 29.9175 23.8931 30.3315V33.0848C23.8931 33.4988 23.5571 33.8348 23.1431 33.8348H14.3996C13.9856 33.8348 13.6496 33.4988 13.6496 33.0848V30.3315Z" fill="white"/>
<path id="Vector_3" d="M15.1562 31.0807H22.3997V32.334H15.1562V31.0807Z" fill="white"/>
<path id="Vector_4" d="M21.1101 26.4915C21.0951 26.5147 21.0853 26.5417 21.0703 26.565H21.1761C21.1543 26.5402 21.1311 26.517 21.1101 26.4915Z" fill="white"/>
<path id="Vector_5" d="M24.4311 26.565C25.9746 26.565 27.2293 25.3095 27.2293 23.7668C27.2293 22.224 25.9738 20.9685 24.4311 20.9685C22.8883 20.9685 21.6328 22.224 21.6328 23.7668C21.6328 25.3095 22.8883 26.565 24.4311 26.565Z" fill="white"/>
<path id="Vector_6" d="M10.4453 5.72249V11.8597C10.4453 12.9622 11.3423 13.8592 12.4448 13.8592C13.5473 13.8592 14.4443 12.9622 14.4443 11.8597V5.72249C14.4443 4.61999 13.5473 3.72299 12.4448 3.72299C11.3423 3.72299 10.4453 4.61999 10.4453 5.72249Z" fill="white"/>
<path id="Vector_7" d="M38.5537 5.72249C38.5537 4.61999 37.6567 3.72299 36.5542 3.72299C35.4517 3.72299 34.5547 4.61999 34.5547 5.72249V9.09599C34.5547 9.09599 34.5547 9.09824 34.5547 9.09974C34.5547 9.10124 34.5547 9.10199 34.5547 9.10349V11.8605C34.5547 12.963 35.4517 13.86 36.5542 13.86C37.6567 13.86 38.5537 12.963 38.5537 11.8605V9.11849C38.5537 9.11174 38.5499 9.10649 38.5499 9.10049C38.5499 9.09449 38.5537 9.08849 38.5537 9.08249V5.72399V5.72249Z" fill="white"/>
<path id="Vector_8" d="M35.917 26.9753L31.0938 30.3562V36.5475L35.917 39.9278V26.9753Z" fill="white"/>
<path id="Vector_9" d="M18.2766 26.565C19.2996 26.565 20.1321 25.7332 20.1321 24.7102C20.1321 23.6872 19.2996 22.8555 18.2766 22.8555C17.2536 22.8555 16.4219 23.6872 16.4219 24.7102C16.4219 25.7332 17.2536 26.565 18.2766 26.565Z" fill="white"/>
<path id="Vector_10" d="M43.403 9.849H40.055V11.8597C40.055 13.7895 38.4853 15.3592 36.5555 15.3592C34.6258 15.3592 33.056 13.7895 33.056 11.8597V9.849H15.9425V11.8597C15.9425 13.7895 14.3727 15.3592 12.443 15.3592C10.5132 15.3592 8.9435 13.7895 8.9435 11.8597V9.849H5.59625C4.4405 9.849 3.5 10.7925 3.5 11.9527V16.1947H45.5V11.9527C45.5 10.7925 44.5588 9.849 43.403 9.849Z" fill="white"/>
</g>
</svg>
