<svg width="49" height="48" viewBox="0 0 49 48" fill="none" xmlns="http://www.w3.org/2000/svg">
<g id="Capa_1" clip-path="url(#clip0_2010_2738)">
<g id="Group">
<g id="Group_2">
<path id="Vector" d="M44.5154 10.89C40.1702 10.89 35.6178 10.89 35.6178 10.89C34.8321 10.89 34.0993 11.1241 33.4844 11.5253C34.3169 12.3956 34.874 13.5259 35.012 14.7783C35.012 14.7782 35.012 14.7781 35.012 14.778C35.0218 14.6051 35.1675 14.4715 35.3405 14.4764C35.5136 14.4814 35.6511 14.6232 35.6511 14.7964C35.6511 18.8078 35.6511 41.8818 35.6511 42.6704C35.6511 43.7688 36.5416 44.6593 37.64 44.6593C38.7385 44.6593 39.629 43.7689 39.629 42.6704V26.7732H40.4876V42.6704C40.4876 43.7688 41.378 44.6593 42.4765 44.6593C43.575 44.6593 44.4654 43.7689 44.4654 42.6704C44.4654 16.387 44.4654 31.4064 44.4654 14.8469C44.4654 14.6869 44.5705 14.5459 44.7239 14.5001C44.8773 14.4544 45.0427 14.5146 45.1302 14.6486C45.1638 14.6997 45.1839 14.7536 45.1842 14.8093V26.9855C45.1888 27.8981 45.9299 28.6345 46.8413 28.6345C46.8442 28.6345 46.8471 28.6345 46.8498 28.6345C47.7652 28.6299 48.5034 27.8841 48.4987 26.9687V14.7926C48.4879 12.6407 46.6673 10.89 44.5154 10.89Z" fill="white"/>
</g>
</g>
<g id="Group_3">
<g id="Group_4">
<path id="Vector_2" d="M44.4616 4.90303C44.4616 2.12587 42.341 0.365051 40.0761 0.365051C37.7942 0.365051 35.6907 2.14312 35.6907 4.90303C35.2483 5.23594 34.9609 5.76375 34.9609 6.36009C34.961 7.23394 35.5755 7.96444 36.396 8.14275C36.5957 8.18616 36.7854 8.034 36.7854 7.8286V7.32066C37.2045 8.7615 38.5324 9.7951 40.0833 9.7951C41.5985 9.7951 42.9275 8.80069 43.367 7.37016V7.82869C43.367 8.03344 43.556 8.18644 43.7564 8.14285C44.5768 7.96444 45.1912 7.23403 45.1912 6.36009C45.1913 5.76375 44.904 5.23603 44.4616 4.90303ZM40.0833 2.92509C38.7132 2.92509 37.5308 3.7274 36.9794 4.88765C36.9794 2.89227 38.4748 1.65346 40.0762 1.65346C41.6761 1.65346 43.1731 2.89696 43.1731 4.85822C42.6158 3.7139 41.4418 2.92509 40.0833 2.92509Z" fill="white"/>
</g>
</g>
<g id="Group_5">
<g id="Group_6">
<path id="Vector_3" d="M13.3808 10.8899C12.5409 10.89 5.58756 10.89 4.48328 10.89C2.33143 10.89 0.510897 12.6405 0.500022 14.7925V26.9686C0.495335 27.884 1.23371 28.6298 2.14899 28.6344C2.15181 28.6344 2.15462 28.6344 2.15743 28.6344C3.06887 28.6344 3.80997 27.8978 3.81456 26.9854V14.8092V14.8091C3.81568 14.6155 3.97309 14.4595 4.1665 14.46C4.36 14.4606 4.51637 14.6176 4.51637 14.8111V42.6704C4.51637 43.7688 5.40681 44.6593 6.50528 44.6593C7.60366 44.6593 8.49419 43.7689 8.49419 42.6704V26.7732H9.35285V42.6704C9.35285 43.7688 10.2433 44.6593 11.3418 44.6593C12.4401 44.6593 13.3307 43.7689 13.3307 42.6704V14.7239C13.3307 14.5916 13.4118 14.4729 13.535 14.4248C13.6581 14.3766 13.7984 14.4088 13.888 14.5061C13.9156 14.5361 13.937 14.5675 13.9493 14.6004C14.1127 13.4023 14.6404 12.3176 15.4183 11.4636C14.8236 11.1 14.1259 10.8899 13.3808 10.8899Z" fill="white"/>
</g>
</g>
<g id="Group_7">
<g id="Group_8">
<path id="Vector_4" d="M13.321 4.90303C13.321 2.12587 11.2004 0.365051 8.93551 0.365051C6.65354 0.365051 4.55006 2.14312 4.55006 4.90303C4.10766 5.23594 3.82031 5.76375 3.82031 6.36009C3.82041 7.23394 4.43484 7.96444 5.25535 8.14275C5.45503 8.18616 5.64478 8.034 5.64478 7.8286V7.32066C6.06385 8.7615 7.39173 9.7951 8.94264 9.7951C10.4578 9.7951 11.7869 8.80069 12.2263 7.37016V7.82869C12.2263 8.03344 12.4154 8.18644 12.6158 8.14285C13.4362 7.96444 14.0506 7.23403 14.0506 6.36009C14.0508 5.76375 13.7635 5.23603 13.321 4.90303ZM8.94273 2.92509C7.57266 2.92509 6.39029 3.7274 5.83885 4.88765C5.83885 2.89227 7.33426 1.65346 8.9357 1.65346C10.5355 1.65346 12.0325 2.89696 12.0325 4.85822C11.4752 3.7139 10.3013 2.92509 8.94273 2.92509Z" fill="white"/>
</g>
</g>
<g id="Group_9">
<g id="Group_10">
<path id="Vector_5" d="M29.3452 11.1528H27.5101C27.2755 11.7656 25.5421 16.2943 25.2904 16.9516L25.8138 14.4865C25.8506 14.3134 25.8239 14.1327 25.7386 13.9778L25.02 12.6707L25.659 11.5088C25.7541 11.3357 25.6287 11.1234 25.4311 11.1234C24.8078 11.1234 24.302 11.1234 23.6775 11.1234C23.48 11.1234 23.3544 11.3355 23.4496 11.5088C23.5672 11.7225 23.952 12.4224 24.0885 12.6707L23.3672 13.9825C23.2952 14.1135 23.263 14.1849 23.289 14.4214C23.3236 14.7371 23.4619 15.5124 23.7476 16.9517C23.5056 16.3311 21.5518 11.1595 21.5518 11.1595L19.733 11.1529C17.3717 11.1529 15.4414 13.0442 15.4297 15.3779V28.5322C15.4297 29.5211 16.2313 30.3227 17.2202 30.3227C18.2091 30.3227 19.0108 29.5211 19.0108 28.5322V15.3866C19.0108 15.3866 19.0108 15.3865 19.0108 15.3863C19.0119 15.1772 19.1819 15.0086 19.391 15.0092C19.6001 15.0098 19.7691 15.1795 19.7691 15.3884C19.7691 19.7995 19.7691 45.0209 19.7691 45.4861C19.7691 46.6728 20.7311 47.6347 21.9178 47.6347C23.1045 47.6347 24.0664 46.6728 24.0664 45.4861V28.312H24.9943V45.4863C24.9943 46.6729 25.9562 47.6349 27.1429 47.6349C28.3295 47.6349 29.2916 46.6729 29.2916 45.4863C29.2916 17.6443 29.2916 32.5537 29.2916 15.3799C29.2916 15.1659 29.4647 14.9922 29.6787 14.9917C29.8926 14.9911 30.0669 15.1637 30.068 15.3776V15.3779V28.5322C30.068 29.5211 30.8697 30.3227 31.8586 30.3227C32.8474 30.3227 33.6491 29.5211 33.6491 28.5322V15.3687C33.6369 13.0439 31.7064 11.1528 29.3452 11.1528Z" fill="white"/>
</g>
</g>
<g id="Group_11">
<g id="Group_12">
<path id="Vector_6" d="M24.5517 2.54794C23.5544 2.54794 22.6278 2.94216 21.9609 3.58238V8.17745L23.493 8.79892C24.0043 9.00349 24.3392 9.45864 24.416 9.9664C24.8822 9.98327 25.3242 9.91605 25.7493 9.77111C27.2109 9.27283 28.2626 7.88908 28.2626 6.25876C28.2627 4.20948 26.6013 2.54794 24.5517 2.54794Z" fill="white"/>
</g>
</g>
<g id="Group_13">
<g id="Group_14">
<path id="Vector_7" d="M23.1271 9.72545L20.9459 8.85301V4.65141C20.932 4.53853 20.8455 4.46963 20.7445 4.48191C19.8382 4.59169 19.1719 5.36925 19.1719 6.25904C19.172 6.87085 19.4798 7.40982 19.9479 7.7327V9.19098C19.9479 9.39498 20.0722 9.57854 20.2615 9.65429L22.7564 10.6522C23.0127 10.7546 23.3029 10.6297 23.4051 10.3742C23.5074 10.1182 23.3829 9.82792 23.1271 9.72545Z" fill="white"/>
</g>
</g>
</g>
<defs>
<clipPath id="clip0_2010_2738">
<rect width="48" height="48" fill="white" transform="translate(0.5)"/>
</clipPath>
</defs>
</svg>
